<?xml version="1.0" encoding="UTF-8"?>
<svg width="30px" height="30px" viewBox="0 0 30 30" version="1.1" xmlns="http://www.w3.org/2000/svg" xmlns:xlink="http://www.w3.org/1999/xlink">
    <!-- Generator: Sketch 50.2 (55047) - http://www.bohemiancoding.com/sketch -->
    <title>Shape</title>
    <desc>Created with Sketch.</desc>
    <defs></defs>
    <g id="Page-1" stroke="none" stroke-width="1" fill="none" fill-rule="evenodd">
        <path d="M25.9490323,25.3287097 L21.5003226,25.3287097 L21.5003226,18.3251613 C21.5003226,16.6558065 21.4712903,14.5074194 19.1883871,14.5074194 C16.8725806,14.5074194 16.5193548,16.3267742 16.5193548,18.206129 L16.5193548,25.3287097 L12.0745161,25.3287097 L12.0745161,10.9287097 L16.3403226,10.9287097 L16.3403226,12.8970968 L16.4012903,12.8970968 C16.9954839,11.7648387 18.4470968,10.5706452 20.6109677,10.5706452 C25.1167742,10.5706452 25.9490323,13.5522581 25.9490323,17.4319355 L25.9490323,25.3287097 Z M7.05870968,8.96129032 C6.37181338,8.96001025 5.71363089,8.68558111 5.22928447,8.1985116 C4.74493805,7.71144209 4.47420324,7.05173139 4.47677419,6.36483871 C4.47677419,4.93258065 5.6283871,3.76935484 7.05774194,3.76935484 C8.48653661,3.7741574 9.64105692,4.93604239 9.63677419,6.36483871 C9.63908803,7.05115172 9.36866832,7.71027389 8.88500511,8.19720386 C8.4013419,8.68413384 7.74405497,8.95898426 7.05774194,8.96129032 L7.05870968,8.96129032 Z M4.82903226,25.3287097 L9.28258065,25.3287097 L9.28258065,10.9287097 L4.83,10.9287097 L4.83,25.3287097 L4.82903226,25.3287097 Z M27.7809677,0 L2.21322581,0 C0.990967742,0 0,0.967741935 0,2.16290323 L0,27.8351613 C0,29.0303226 0.991935484,30 2.21225806,30 L27.78,30 C29.0051613,30 30,29.0303226 30,27.8351613 L30,2.16290323 C30,0.968709677 29.0032258,0 27.7809677,0 Z" id="Shape" fill="#FFFFFE"></path>
    </g>
</svg>