<?xml version="1.0" encoding="UTF-8"?>
<svg width="30px" height="30px" viewBox="0 0 30 30" version="1.1" xmlns="http://www.w3.org/2000/svg" xmlns:xlink="http://www.w3.org/1999/xlink">
    <!-- Generator: Sketch 50.2 (55047) - http://www.bohemiancoding.com/sketch -->
    <title>Shape</title>
    <desc>Created with Sketch.</desc>
    <defs></defs>
    <g id="Page-1" stroke="none" stroke-width="1" fill="none" fill-rule="evenodd">
        <path d="M14.9990323,0 C6.71612903,0 0,6.88548387 0,15.3803226 C0,22.1748387 4.29677419,27.9387097 10.2580645,29.9729032 C11.0090323,30.1141935 11.2819355,29.6390323 11.2819355,29.2316129 C11.2819355,28.8667742 11.2693548,27.8990323 11.2625806,26.6167742 C7.08967742,27.5458065 6.20903226,24.5545161 6.20903226,24.5545161 C5.52677419,22.7777419 4.54354839,22.3045161 4.54354839,22.3045161 C3.18193548,21.3512903 4.64612903,21.3696774 4.64612903,21.3696774 C6.15193548,21.4780645 6.94451613,22.9548387 6.94451613,22.9548387 C8.28193548,25.3045161 10.4554839,24.626129 11.3090323,24.2322581 C11.4464516,23.2393548 11.8335484,22.5609677 12.2622581,22.1767742 C8.93129032,21.7896774 5.43,20.4687097 5.43,14.576129 C5.43,12.8970968 6.01354839,11.5229032 6.97354839,10.4487097 C6.81870968,10.0596774 6.30387097,8.49580645 7.12064516,6.3783871 C7.12064516,6.3783871 8.37967742,5.96516129 11.2451613,7.95580645 C12.4675603,7.61390861 13.7306899,7.43941443 15,7.43709677 C16.2745161,7.44387097 17.5577419,7.61322581 18.7548387,7.95580645 C21.6193548,5.96516129 22.8764516,6.3783871 22.8764516,6.3783871 C23.6951613,8.49580645 23.1803226,10.0596774 23.0264516,10.4487097 C23.9874194,11.5229032 24.5680645,12.8970968 24.5680645,14.576129 C24.5680645,20.4841935 21.0609677,21.783871 17.7193548,22.1651613 C18.2574194,22.6393548 18.7374194,23.5780645 18.7374194,25.0132258 C18.7374194,27.0687097 18.7180645,28.7274194 18.7180645,29.2316129 C18.7180645,29.6429032 18.9890323,30.1219355 19.7496774,29.9719355 C25.706129,27.933871 30,22.1729032 30,15.3803226 C30,6.88548387 23.283871,0 14.9990323,0" id="Shape" fill="#FFFFFF"></path>
    </g>
</svg>