<?xml version="1.0" encoding="UTF-8"?>
<svg width="33px" height="30px" viewBox="0 0 33 30" version="1.1" xmlns="http://www.w3.org/2000/svg" xmlns:xlink="http://www.w3.org/1999/xlink">
    <!-- Generator: Sketch 50.2 (55047) - http://www.bohemiancoding.com/sketch -->
    <title>Shape</title>
    <desc>Created with Sketch.</desc>
    <defs></defs>
    <g id="Page-1" stroke="none" stroke-width="1" fill="none" fill-rule="evenodd">
        <path d="M33.0310345,3.96413793 C31.8310345,4.54758621 30.54,4.94172414 29.1868966,5.11965517 C30.5689655,4.21137931 31.6293103,2.77344828 32.1289655,1.06034483 C30.8326458,1.90762245 29.3924566,2.51097338 27.8793103,2.84068966 C26.6586207,1.41517241 24.9186207,0.523448276 22.9944828,0.523448276 C19.2982759,0.523448276 16.3013793,3.80896552 16.3013793,7.86 C16.3013793,8.43517241 16.3603448,8.99482759 16.4741379,9.53172414 C10.9117241,9.22551724 5.98034483,6.30517241 2.67931034,1.8662069 C2.07962039,3.00306526 1.76843037,4.26985022 1.77310345,5.55517241 C1.77310345,8.1 2.95551724,10.3448276 4.75137931,11.6606897 C3.67893929,11.6214346 2.63484163,11.3057109 1.72034483,10.7441379 L1.71931034,10.8362069 C1.71931034,14.3906897 4.0262069,17.3555172 7.08827586,18.0289655 C6.10690297,18.3219904 5.06790084,18.3653711 4.06551724,18.1551724 C4.91689655,21.0693103 7.38827586,23.19 10.3168966,23.25 C8.02758621,25.2175862 5.14137931,26.3896552 2.00482759,26.3896552 C1.46482759,26.3896552 0.932068966,26.3555172 0.40862069,26.2872414 C3.37034483,28.3686207 6.88862069,29.5831034 10.6686207,29.5831034 C22.9789655,29.5831034 29.7103448,18.4044828 29.7103448,8.71034483 C29.7103448,8.39275862 29.7041379,8.0762069 29.6906897,7.76172414 C30.9982759,6.72724138 32.1331034,5.43517241 33.0310345,3.96413793" id="Shape" fill="#FFFFFF"></path>
    </g>
</svg>