<svg width="20" height="21" viewBox="0 0 20 21" fill="none" xmlns="http://www.w3.org/2000/svg">
<path d="M18.1667 9.46566H10.1667V12.7157H14.75C14.3334 14.6657 12.5834 15.9657 10.1667 15.9657C7.41669 15.9657 5.16669 13.6907 5.16669 10.924C5.16669 8.24066 7.41669 6.04899 10.1667 6.04899C11.4167 6.04899 12.5 6.45732 13.3334 7.10732L15.8334 4.66566C14.2319 3.36105 12.2323 2.64355 10.1667 2.63232C5.50002 2.63232 1.66669 6.37399 1.66669 10.924C1.66669 15.6407 5.50002 19.299 10.1667 19.299C14.3334 19.299 18.3334 16.2157 18.3334 10.924C18.3334 10.4407 18.3334 9.94899 18.1667 9.46566Z" fill="white"/>
</svg>
