<svg width="20" height="21" viewBox="0 0 20 21" fill="none" xmlns="http://www.w3.org/2000/svg">
<path fill-rule="evenodd" clip-rule="evenodd" d="M9.99908 0.96582C4.47773 0.96582 0 5.55624 0 11.2192C0 15.7492 2.86504 19.5919 6.83876 20.9477C7.33908 21.0421 7.52141 20.7255 7.52141 20.4535C7.52141 20.2106 7.51281 19.5654 7.5079 18.71C4.72636 19.3294 4.13948 17.3354 4.13948 17.3354C3.68458 16.1508 3.02894 15.8354 3.02894 15.8354C2.121 15.1997 3.0977 15.2123 3.0977 15.2123C4.10141 15.2847 4.62936 16.2691 4.62936 16.2691C5.52135 17.8358 6.97013 17.3832 7.53983 17.1207C7.63068 16.4586 7.88913 16.0066 8.17459 15.7505C5.95414 15.4918 3.61951 14.6118 3.61951 10.6829C3.61951 9.56381 4.00933 8.64799 4.64901 7.9317C4.54587 7.67238 4.20271 6.62942 4.74723 5.21824C4.74723 5.21824 5.58642 4.94255 7.49685 6.26938C8.2943 6.04153 9.15007 5.92823 10.0003 5.92383C10.8499 5.92823 11.7051 6.04153 12.5038 6.26938C14.413 4.94255 15.2509 5.21824 15.2509 5.21824C15.7967 6.62942 15.4535 7.67238 15.351 7.9317C15.9919 8.64799 16.3786 9.56381 16.3786 10.6829C16.3786 14.6219 14.0403 15.4886 11.8131 15.7423C12.1716 16.0589 12.4915 16.6845 12.4915 17.6413C12.4915 19.0115 12.4792 20.1174 12.4792 20.4535C12.4792 20.728 12.6597 21.0471 13.1668 20.947C17.1374 19.5881 20 15.7479 20 11.2192C20 5.55624 15.5223 0.96582 9.99908 0.96582" fill="white"/>
</svg>
