<svg width="64" height="105" viewBox="0 0 64 105" fill="none" xmlns="http://www.w3.org/2000/svg">
<path d="M56.0155 23.0903C56.5827 24.7815 56.9218 26.5499 57.0226 28.3428V28.9022L53.3508 39.3623C54.2006 47.6242 55.0084 57.8215 54.1114 60.2939C53.6708 61.5021 52.3385 63.6949 50.1721 66.7826L52.5221 89.9628L61.8274 82.8532C62.3014 82.4906 62.6877 82.0127 62.954 81.4592C63.2204 80.9057 63.3592 80.2925 63.359 79.6704V28.0967C63.3595 27.2471 63.1009 26.4203 62.6221 25.7413C62.1433 25.0622 61.4704 24.5676 60.7049 24.3321C59.5352 23.9741 57.9563 23.5378 56.0155 23.0903Z" fill="white"/>
<path d="M24.9731 28.3764C29.3424 26.8064 34.0738 26.8064 38.4432 28.3764L39.571 26.4019L40.321 20.8082C40.321 20.8082 35.0757 20.5117 31.7501 20.5117C28.6605 20.5117 25.7756 20.6292 23.0952 20.8194L23.8505 26.4131L24.9731 28.3764Z" fill="white"/>
<path d="M9.26334 60.2935C8.37162 57.8435 9.17942 47.624 10.0239 39.3623L6.37838 28.9023V28.343C6.47758 26.5523 6.81491 24.7857 7.38025 23.0962C5.43945 23.5437 3.86584 23.98 2.6594 24.338C1.89292 24.5724 1.21885 25.0666 0.739057 25.7457C0.259266 26.4249 -0.000150586 27.2521 6.55794e-08 28.1024V79.6696C0.000432408 80.2922 0.140074 80.9057 0.407363 81.4593C0.674652 82.0128 1.06188 82.4904 1.53689 82.8524L10.8789 89.9898L13.2288 66.8324C11.0573 63.7167 9.7092 61.5129 9.26334 60.2935Z" fill="white"/>
<path d="M44.8536 2.23754C44.9003 2.23654 44.9462 2.24966 44.9861 2.27541C45.0261 2.30115 45.0583 2.33845 45.0792 2.38297L46.3171 4.83856C49.6269 11.3999 55.2342 23.7337 55.2342 28.3317V28.5442L51.5625 39.1105V39.284C52.7112 50.3928 53.0469 57.9834 52.4594 59.5887C51.9349 61.0207 49.8787 64.0636 48.132 66.508L50.676 88.6195L49.1444 89.7886L33.8383 101.485C33.2145 101.962 32.466 102.219 31.6982 102.219C30.9304 102.219 30.182 101.962 29.5581 101.485L17.179 91.9757L15.2959 90.5381L12.7834 88.6195L15.3011 66.5528C13.5544 64.1028 11.4615 61.0207 10.937 59.5775C10.3495 57.9722 10.6852 50.3817 11.8392 39.2728V39.0994L8.16742 28.5386V28.3205C8.16742 23.7114 13.7642 11.3775 17.0846 4.82738L18.3225 2.37178C18.3433 2.32727 18.3756 2.28997 18.4155 2.26422C18.4554 2.23848 18.5014 2.22534 18.548 2.22635C18.612 2.22444 18.6743 2.24805 18.7228 2.29253C18.7713 2.33701 18.8025 2.39918 18.8103 2.46688L22.1201 27.0787L24.1711 30.6754L24.6956 30.4908C26.95 29.6468 29.3149 29.1862 31.7035 29.126C34.1018 29.196 36.4759 29.6582 38.7428 30.4964L39.2673 30.6754L41.2868 27.0899L44.5914 2.47806C44.5992 2.41036 44.6304 2.34819 44.6789 2.30371C44.7274 2.25923 44.7897 2.23564 44.8536 2.23754ZM44.8536 0.000103055C44.2843 -0.00421615 43.733 0.212477 43.3026 0.609769C42.8721 1.00706 42.5919 1.55781 42.5142 2.15922L39.2673 26.2956L38.2969 27.9737C36.1502 27.281 33.9248 26.9046 31.6825 26.855C29.4498 26.8969 27.2338 27.2735 25.0995 27.9737L24.1291 26.2956L20.8822 2.15922C20.8056 1.55731 20.5257 1.00588 20.095 0.60837C19.6643 0.210858 19.1124 -0.00541532 18.5428 0.000103055C18.1131 -0.00294439 17.6908 0.118844 17.3212 0.3524C16.9515 0.585957 16.6485 0.922459 16.4446 1.32578L15.212 3.78137C13.6803 6.8131 6.05353 22.2402 6.05353 28.3429V28.9582L6.18466 29.3385L9.69382 39.407C8.47165 51.327 8.22512 58.3917 8.95947 60.411C9.13782 60.8976 9.65711 62.324 13.0928 67.2016L10.6747 88.3734L10.5278 89.6879L11.5402 90.4598L14.0527 92.3784L15.9306 93.816L28.3149 103.28C29.2952 104.03 30.471 104.433 31.6772 104.433C32.8834 104.433 34.0593 104.03 35.0395 103.28L50.3298 91.5953L51.8615 90.4262L52.8686 89.6543L52.7217 88.3398L50.2983 67.1457C53.6974 62.3184 54.2219 60.8976 54.395 60.4334C55.1346 58.4085 54.888 51.3382 53.6606 39.4238L57.1698 29.3553L57.3009 28.9749V28.3596C57.3009 22.257 49.6741 6.8243 48.1477 3.79256L46.9098 1.34256C46.7064 0.938837 46.4035 0.601999 46.0337 0.368378C45.664 0.134757 45.2414 0.013222 44.8117 0.0168832L44.8536 0.000103055Z" fill="white"/>
<path d="M16.827 63.0117L21.3223 61.6133C21.4189 61.5863 21.5051 61.5276 21.5688 61.4455L25.8647 56.2266C25.9336 56.1429 26.0244 56.0831 26.1253 56.0548C26.2263 56.0265 26.3329 56.0309 26.4314 56.0675C26.53 56.1042 26.6161 56.1714 26.6787 56.2605C26.7412 56.3496 26.7775 56.4566 26.7827 56.5678L27.5275 71.5254C27.5322 71.6481 27.501 71.7693 27.4384 71.8723C27.1394 72.3365 26.2791 73.7573 26.2791 74.63C26.2791 75.7487 27.8527 77.2143 29.3529 78.3834C29.3699 78.3358 29.3892 78.2891 29.4106 78.2435C29.9352 77.2255 30.6433 77.0409 30.9842 77.824C31.1007 78.4026 31.1413 78.9955 31.1049 79.586H31.1311V80.9621C31.1314 81.0473 31.1135 81.1315 31.0786 81.2082C30.8006 81.8123 29.4578 84.3687 26.5834 84.3687C25.3559 84.3687 22.3399 83.9436 20.9918 80.0167C19.3238 75.1446 19.308 68.3258 19.308 68.0405V67.5707L19.0353 67.2071C18.3167 66.2617 17.4617 65.0926 16.5804 63.8508C16.5356 63.781 16.5062 63.7012 16.4944 63.6174C16.4827 63.5337 16.4889 63.4483 16.5126 63.3675C16.5364 63.2867 16.577 63.2127 16.6315 63.151C16.6859 63.0894 16.7528 63.0418 16.827 63.0117Z" fill="white"/>
<path d="M44.4549 67.224L44.1821 67.5876V68.0574C44.1821 68.3427 44.1821 75.1613 42.4983 80.0332C41.1503 83.9487 38.1342 84.385 36.9068 84.385C34.0323 84.385 32.7104 81.8288 32.4115 81.2247C32.3766 81.1479 32.3587 81.0638 32.359 80.9785V79.6025C32.325 79.0118 32.3674 78.4189 32.4849 77.8405C32.7996 77.0574 33.4973 77.242 34.0585 78.26C34.0585 78.3048 34.0952 78.3551 34.1162 78.3999C35.6426 77.2308 37.19 75.7654 37.19 74.6466C37.19 73.774 36.3298 72.3533 36.0308 71.889C35.9681 71.7861 35.9369 71.6649 35.9416 71.5422L36.6865 56.5851C36.6917 56.4739 36.7279 56.3669 36.7904 56.2778C36.853 56.1887 36.9391 56.1215 37.0377 56.0849C37.1362 56.0482 37.2428 56.0438 37.3438 56.0721C37.4448 56.1004 37.5355 56.1602 37.6044 56.2439L41.9004 61.4627C41.9641 61.5447 42.0503 61.6034 42.1469 61.6305L46.6369 63.0288C46.7192 63.0538 46.7945 63.0999 46.8563 63.163C46.918 63.2261 46.9644 63.3044 46.9913 63.391C47.0182 63.4776 47.0248 63.5698 47.0106 63.6598C46.9964 63.7497 46.9617 63.8346 46.9097 63.907C46.0337 65.1264 45.1735 66.2787 44.4549 67.224Z" fill="white"/>
<path d="M22.2251 51.5228C22.1987 51.7246 22.1053 51.9095 21.9619 52.044C21.8185 52.1785 21.6345 52.2536 21.4435 52.2557C21.5167 52.602 21.7097 52.9061 21.9839 53.1073C22.2581 53.3085 22.5934 53.392 22.9227 53.341C23.1369 53.3091 23.34 53.2201 23.5133 53.0822C23.6866 52.9443 23.8244 52.762 23.9141 52.5522C24.05 52.2426 24.0748 51.8907 23.9839 51.5629C23.8931 51.2352 23.6929 50.9543 23.4211 50.7732H25.6189C25.6356 50.7732 25.6516 50.7802 25.6634 50.7928C25.6752 50.8054 25.6818 50.8225 25.6818 50.8403C25.7015 51.2674 25.6401 51.6943 25.5012 52.0953C25.3623 52.4964 25.1488 52.8634 24.8735 53.1742C24.5983 53.4851 24.2669 53.7334 23.8994 53.9042C23.5319 54.075 23.1358 54.1648 22.7349 54.1682C22.334 54.1716 21.9366 54.0885 21.5666 53.9239C21.1966 53.7594 20.8616 53.5168 20.5818 53.2106C20.3019 52.9045 20.083 52.5411 19.9381 52.1425C19.7933 51.7438 19.7255 51.318 19.7388 50.8907V50.7732H22.031H21.9943C22.0871 50.8687 22.1566 50.9868 22.1968 51.1175C22.237 51.2481 22.2468 51.3873 22.2251 51.5228Z" fill="white"/>
<path d="M20.7776 48.2948C20.7018 48.2948 20.6269 48.2773 20.5581 48.2435C20.4893 48.2097 20.4281 48.1604 20.3789 48.099C19.718 47.2768 17.7562 44.5137 21.1605 44.5137C23.7097 44.5137 25.724 46.1581 26.8465 47.3439C26.9187 47.4224 26.9675 47.5219 26.987 47.6299C27.0065 47.7378 26.9956 47.8495 26.9559 47.951C26.9162 48.0525 26.8493 48.1392 26.7636 48.2003C26.6779 48.2615 26.5772 48.2943 26.474 48.2948H20.7776Z" fill="white"/>
<path d="M41.4023 50.8007C41.3902 50.7982 41.3777 50.7982 41.3656 50.8007H43.6578V50.9182C43.6515 51.7579 43.3328 52.5605 42.7716 53.1495C42.2104 53.7385 41.4527 54.0657 40.6653 54.059C39.8779 54.0524 39.1253 53.7124 38.5729 53.1139C38.0206 52.5155 37.7138 51.7075 37.72 50.8679V50.8007H39.9755C39.7201 50.9731 39.5285 51.2343 39.4329 51.5401C39.3373 51.8459 39.3437 52.1775 39.451 52.4788C39.5371 52.7097 39.6799 52.9116 39.8646 53.0632C40.0492 53.2148 40.2687 53.3105 40.5001 53.3402C40.828 53.3895 41.1613 53.3051 41.4335 53.104C41.7057 52.9029 41.8968 52.5998 41.9688 52.2551C41.7781 52.2519 41.5948 52.1764 41.4515 52.0421C41.3083 51.9078 41.2146 51.7236 41.1872 51.5223C41.1679 51.3925 41.1774 51.2597 41.2147 51.1344C41.252 51.0091 41.3163 50.8949 41.4023 50.8007Z" fill="white"/>
<path d="M36.9173 48.2948C36.8138 48.2954 36.7123 48.2634 36.6258 48.2026C36.5393 48.1419 36.4716 48.0553 36.4312 47.9536C36.3909 47.8519 36.3796 47.7397 36.3989 47.6312C36.4182 47.5227 36.4672 47.4228 36.5396 47.3439C37.6622 46.1581 39.6869 44.5137 42.2309 44.5137C45.6247 44.5137 43.6682 47.2768 43.0125 48.099C42.9632 48.1604 42.9021 48.2097 42.8333 48.2435C42.7644 48.2773 42.6896 48.2948 42.6138 48.2948H36.9173Z" fill="white"/>
<path d="M36.8594 86.5273C36.5059 86.5283 36.1536 86.4832 35.8103 86.3931C35.7125 86.3725 35.6111 86.3821 35.5182 86.4208C35.4253 86.4594 35.3447 86.5254 35.2857 86.6112C34.8846 87.2205 34.3518 87.7179 33.7323 88.0613C33.1128 88.4047 32.4249 88.5839 31.7268 88.5839C31.0286 88.5839 30.3407 88.4047 29.7212 88.0613C29.1018 87.7179 28.5689 87.2205 28.1678 86.6112C28.1095 86.5244 28.0291 86.4573 27.9362 86.4176C27.8432 86.378 27.7416 86.3675 27.6433 86.3875C27.3186 86.4704 26.9857 86.5117 26.6519 86.5105H26.3424C26.2481 86.5031 26.1537 86.5229 26.0692 86.5679C25.9846 86.6129 25.9131 86.6814 25.862 86.7662C25.811 86.851 25.7824 86.949 25.7792 87.0497C25.776 87.1504 25.7985 87.2501 25.8441 87.3384C26.4162 88.4759 27.2668 89.4267 28.3055 90.0895C29.3442 90.7524 30.532 91.1024 31.7425 91.1024C32.953 91.1024 34.1408 90.7524 35.1795 90.0895C36.2182 89.4267 37.0689 88.4759 37.641 87.3384C37.6863 87.2506 37.7086 87.1514 37.7057 87.0512C37.7027 86.951 37.6745 86.8535 37.6241 86.7689C37.5737 86.6843 37.503 86.6156 37.4192 86.5702C37.3354 86.5247 37.2417 86.5041 37.1479 86.5105L36.8594 86.5273ZM33.1404 80.2683C33.5127 80.402 33.8658 80.5903 34.1895 80.8277C33.8485 80.2571 33.4341 80.0502 33.1404 80.2683ZM29.3113 80.7605C29.6177 80.5456 29.9493 80.3745 30.2974 80.2515C30.0142 80.0725 29.6417 80.2292 29.3113 80.7885V80.7605Z" fill="white"/>
<path d="M30.1407 79.11C29.7542 79.2454 29.3857 79.4335 29.0444 79.6697C29.4116 79.11 29.8259 78.8917 30.1407 79.11Z" fill="white"/>
<path d="M34.4842 79.7477C34.1197 79.4791 33.7227 79.2645 33.304 79.1099C33.6292 78.8693 34.0908 79.1099 34.4842 79.7477Z" fill="white"/>
<path d="M29.6364 85.7115C29.5928 85.7106 29.55 85.7243 29.514 85.7506C29.478 85.7769 29.4506 85.8145 29.4356 85.8581C29.4206 85.9018 29.4187 85.9494 29.4303 85.9942C29.4418 86.039 29.4662 86.0789 29.5 86.1083C30.129 86.6269 30.9027 86.9063 31.6979 86.902C32.4917 86.9028 33.2638 86.626 33.8957 86.1139C33.9286 86.0836 33.952 86.0433 33.963 85.9985C33.974 85.9537 33.972 85.9063 33.9572 85.8628C33.9425 85.8192 33.9157 85.7814 33.8803 85.7544C33.845 85.7274 33.8028 85.7124 33.7593 85.7115H29.6364Z" fill="white"/>
<path d="M11.8027 26.8214C12.0021 24.5838 13.9586 19.6165 15.999 15.1022C16.0386 15.0163 16.1029 14.9463 16.1825 14.9022C16.2622 14.8582 16.3529 14.8426 16.4415 14.8576C16.5301 14.8726 16.6118 14.9175 16.6748 14.9857C16.7377 15.0539 16.7784 15.1417 16.7911 15.2364L17.195 18.2012C17.2002 18.2439 17.2002 18.2872 17.195 18.3299C16.9589 20.008 16.0095 25.8257 13.5704 29.9148C13.5288 29.9859 13.4692 30.0431 13.3986 30.0798C13.3279 30.1166 13.249 30.1314 13.1708 30.1227C13.0926 30.1139 13.0183 30.082 12.9564 30.0304C12.8944 29.9788 12.8473 29.9097 12.8203 29.8309L11.8394 27.0339C11.8129 26.9668 11.8004 26.8942 11.8027 26.8214Z" fill="white"/>
<path d="M49.9102 29.9145C47.4764 25.8254 46.5217 19.9967 46.2909 18.3298C46.2857 18.2871 46.2857 18.2438 46.2909 18.2011L46.6896 15.2364C46.7022 15.1417 46.743 15.0539 46.8059 14.9857C46.8688 14.9175 46.9505 14.8726 47.0391 14.8576C47.1277 14.8426 47.2185 14.8582 47.2981 14.9022C47.3778 14.9463 47.442 15.0163 47.4816 15.1022C49.5115 19.6164 51.468 24.5612 51.6779 26.8211C51.6932 26.8872 51.6932 26.9564 51.6779 27.0225L50.7022 29.8194C50.6814 29.9093 50.6353 29.9902 50.57 30.0513C50.5048 30.1124 50.4236 30.1507 50.3373 30.1611C50.251 30.1715 50.1638 30.1534 50.0874 30.1093C50.0111 30.0652 49.9492 29.9972 49.9102 29.9145Z" fill="white"/>
</svg>
