<svg width="447" height="397" viewBox="0 0 447 397" fill="none" xmlns="http://www.w3.org/2000/svg">
<g filter="url(#filter0_d)">
<path d="M277.764 24.8818C277.764 14.4348 286.233 5.96582 296.68 5.96582H357.586C368.033 5.96582 376.502 14.4348 376.502 24.8818V85.8272C376.502 96.2742 368.033 104.743 357.586 104.743H289.764C283.136 104.743 277.764 99.3706 277.764 92.7432V24.8818Z" fill="#21214C"/>
<mask id="mask0" style="mask-type:alpha" maskUnits="userSpaceOnUse" x="277" y="5" width="100" height="100">
<path d="M277.764 24.8818C277.764 14.4348 286.233 5.96582 296.68 5.96582H357.586C368.033 5.96582 376.502 14.4348 376.502 24.8818V85.8272C376.502 96.2742 368.033 104.743 357.586 104.743H289.764C283.136 104.743 277.764 99.3706 277.764 92.7432V24.8818Z" fill="white"/>
</mask>
<g mask="url(#mask0)">
<path d="M205.91 221.324C201.585 224.353 196.045 224.938 191.785 221.803C182.876 215.232 174.833 207.046 166.879 199.761C158.926 192.476 150.923 185.783 143.65 177.386C140.175 173.39 140.297 167.81 142.953 163.238C213.84 41.2424 328.163 12.5974 335.307 16.9587C340.239 23.7403 321.262 140.359 205.91 221.324Z" fill="white"/>
<path d="M269.357 39.1474C277.754 45.2491 288.337 54.8873 295.665 61.6283C302.523 67.9323 312.127 77.004 318.694 84.4248C334.629 47.7173 337.633 20.1463 335.309 16.9578C331.941 14.9024 304.669 20.1948 269.357 39.1474Z" fill="url(#paint0_linear)"/>
<path opacity="0.04" d="M334.358 16.7761C334.502 16.8196 334.64 16.8793 334.771 16.9542C280.828 24.6222 186.235 94.3223 141.213 172.055C140.926 170.432 140.926 168.771 141.213 167.148C141.213 166.97 141.269 166.792 141.318 166.613C141.366 166.435 141.431 166.2 141.488 165.998C141.609 165.609 141.738 165.188 141.883 164.84C141.948 164.694 141.997 164.541 142.069 164.387C142.307 163.831 142.577 163.291 142.877 162.767C212.447 43.0594 324.048 13.5373 334.358 16.7761Z" fill="black"/>
<path d="M263.806 131.109C282.281 130.341 296.636 114.741 295.868 96.266C295.1 77.7907 279.5 63.436 261.025 64.2039C242.55 64.9717 228.195 80.5714 228.963 99.0468C229.731 117.522 245.331 131.877 263.806 131.109Z" fill="#737373"/>
<path d="M262.339 129.961C280.815 129.193 295.169 113.593 294.401 95.1181C293.633 76.6428 278.034 62.288 259.558 63.0559C241.083 63.8238 226.728 79.4235 227.496 97.8988C228.264 116.374 243.864 130.729 262.339 129.961Z" fill="#B3B2BD"/>
<path d="M266.494 123.306C281.325 120.251 290.87 105.752 287.815 90.9215C284.76 76.091 270.261 66.5451 255.431 69.6002C240.6 72.6552 231.055 87.1543 234.11 101.985C237.165 116.815 251.664 126.361 266.494 123.306Z" fill="url(#paint1_linear)"/>
<path opacity="0.14" d="M242.732 83.8955C245.795 80.6344 249.63 78.165 253.897 76.7063C258.165 75.2477 262.733 74.8447 267.197 75.5331C271.661 76.2215 275.883 77.98 279.489 80.6529C283.095 83.3258 285.974 86.8304 287.87 90.8563C287.052 87.1538 285.447 83.6621 283.162 80.609C280.876 77.556 277.96 75.0101 274.605 73.1374C271.249 71.2648 267.529 70.1074 263.687 69.7408C259.845 69.3741 255.968 69.8065 252.307 71.0097C248.647 72.2128 245.286 74.1598 242.444 76.7235C239.602 79.2873 237.343 82.4102 235.813 85.8887C234.283 89.3672 233.518 93.1231 233.566 96.9115C233.615 100.7 234.477 104.436 236.095 107.875C235.159 103.649 235.274 99.2634 236.429 95.0896C237.584 90.9157 239.746 87.0762 242.732 83.8955Z" fill="black"/>
</g>
</g>
<g filter="url(#filter1_d)">
<rect x="36.6211" y="26.9478" width="234.441" height="154.278" rx="29.5445" fill="#21214C"/>
<mask id="mask1" style="mask-type:alpha" maskUnits="userSpaceOnUse" x="36" y="26" width="236" height="156">
<rect x="36.6211" y="26.9478" width="234.441" height="154.278" rx="29.5445" fill="white"/>
</mask>
<g mask="url(#mask1)">
<path d="M167.834 231.53C158.31 221.754 148.153 212.59 137.427 204.095C135.277 200.531 134.227 196.452 137.181 193.306L149.578 180.087C150.95 178.577 152.875 177.661 154.933 177.537C156.991 177.414 159.015 178.093 160.564 179.427L190.98 206.863C192.464 208.268 193.322 210.191 193.366 212.213C193.411 214.236 192.639 216.193 191.218 217.66L178.82 230.879C175.866 234.024 171.6 233.341 167.834 231.53Z" fill="#949494"/>
<path d="M171.152 141.183C149.423 136.075 127.041 134.432 104.813 136.314C88.5951 154.204 73.3422 179.225 58.9488 210.342C58.8378 210.586 58.809 210.86 58.8667 211.122C58.9245 211.385 59.0656 211.62 59.2683 211.793C59.4711 211.966 59.7242 212.067 59.9888 212.08C60.2534 212.092 60.5149 212.016 60.7328 211.864C87.4193 192.731 112.362 176.001 130.202 169.092L158.429 160.217L171.152 141.183Z" fill="url(#paint2_linear)"/>
<path opacity="0.09" d="M171.152 141.434C152.371 140.081 103.083 131.472 59.0917 210.358C58.2008 211.227 59.861 212.605 60.8734 211.875C87.5259 192.805 112.437 176.13 130.254 169.243L158.445 160.397L171.152 141.434Z" fill="black"/>
<path d="M206.443 223.089C202.118 226.119 196.578 226.703 192.318 223.569C183.409 216.998 175.366 208.812 167.412 201.526C159.459 194.241 151.456 187.549 144.183 179.151C140.708 175.155 140.83 169.576 143.486 165.003C214.373 43.008 328.696 14.363 335.84 18.7243C340.772 25.5059 321.795 142.125 206.443 223.089Z" fill="white"/>
<path d="M170.389 186.61L191.969 172.919C192.946 172.101 193.826 172.919 193.101 173.967L181.318 196.717C157.335 221.194 129.387 248.003 99.2325 276.097C99.1374 276.198 99.0064 276.257 98.8682 276.261C98.73 276.264 98.5959 276.213 98.4955 276.117C98.3951 276.022 98.3365 275.89 98.3327 275.751C98.3289 275.612 98.3801 275.478 98.4751 275.377C124.102 242.479 148.516 212.012 170.389 186.61Z" fill="url(#paint3_linear)"/>
<path d="M269.89 40.913C278.287 47.0148 288.87 56.6529 296.198 63.3939C303.056 69.698 312.66 78.7696 319.227 86.1904C335.162 49.4829 338.166 21.9119 335.842 18.7235C332.474 16.668 305.202 21.9605 269.89 40.913Z" fill="url(#paint4_linear)"/>
<path d="M264.339 132.875C282.814 132.107 297.169 116.507 296.401 98.0316C295.633 79.5563 280.033 65.2016 261.558 65.9695C243.083 66.7374 228.728 82.3371 229.496 100.812C230.264 119.288 245.864 133.642 264.339 132.875Z" fill="#737373"/>
<path d="M262.872 131.727C281.348 130.959 295.702 115.359 294.934 96.8837C294.166 78.4084 278.567 64.0536 260.091 64.8215C241.616 65.5894 227.261 81.1891 228.029 99.6645C228.797 118.14 244.397 132.494 262.872 131.727Z" fill="#B3B2BD"/>
<path d="M267.027 125.072C281.858 122.017 291.404 107.518 288.348 92.6871C285.293 77.8566 270.794 68.3108 255.964 71.3658C241.133 74.4209 231.588 88.9199 234.643 103.75C237.698 118.581 252.197 128.127 267.027 125.072Z" fill="url(#paint5_linear)"/>
<path opacity="0.14" d="M243.265 85.6612C246.328 82.4 250.163 79.9307 254.43 78.472C258.698 77.0133 263.266 76.6103 267.73 77.2987C272.194 77.9871 276.416 79.7457 280.022 82.4185C283.628 85.0914 286.507 88.5961 288.403 92.622C287.585 88.9194 285.98 85.4277 283.695 82.3747C281.409 79.3216 278.493 76.7757 275.138 74.9031C271.782 73.0304 268.062 71.873 264.22 71.5064C260.378 71.1398 256.5 71.5721 252.84 72.7753C249.18 73.9785 245.819 75.9254 242.977 78.4891C240.135 81.0529 237.876 84.1758 236.346 87.6543C234.816 91.1328 234.051 94.8888 234.099 98.6772C234.148 102.466 235.01 106.201 236.628 109.641C235.692 105.414 235.807 101.029 236.962 96.8552C238.117 92.6813 240.279 88.8418 243.265 85.6612Z" fill="black"/>
<path opacity="0.11" d="M193.302 173.821C193.368 173.996 193.385 174.185 193.351 174.368C193.317 174.551 193.233 174.721 193.109 174.86L181.448 197.411C157.717 221.673 130.06 248.247 100.22 276.095C100.138 276.183 100.028 276.24 99.9094 276.256C99.7906 276.272 99.6698 276.247 99.5673 276.184C99.3336 276.047 193.117 173.44 193.302 173.821Z" fill="black"/>
</g>
</g>
<g filter="url(#filter2_d)">
<g filter="url(#filter3_d)">
<rect x="86" y="9.23926" width="78.7379" height="78.7694" rx="15.0845" fill="url(#paint6_linear)"/>
</g>
<g filter="url(#filter4_d)">
<path d="M117.469 67.3087C116.074 67.3087 114.679 66.7705 113.615 65.6934L103.345 55.3044C101.216 53.1509 101.216 49.6597 103.345 47.5063C105.473 45.3528 108.925 45.3528 111.054 47.5063L117.469 53.9961L139.685 31.5233C141.814 29.3698 145.265 29.3698 147.394 31.5233C149.523 33.6768 149.523 37.168 147.394 39.3214L121.324 65.6934C120.259 66.7705 118.864 67.3087 117.469 67.3087Z" fill="#F6F7FB"/>
</g>
</g>
<g filter="url(#filter5_d)">
<path d="M15 219.409C15 203.092 28.2275 189.865 44.5445 189.865H242C258.016 189.865 271 202.848 271 218.865V314.598C271 330.915 257.772 344.143 241.456 344.143H44.5445C28.2275 344.143 15 330.915 15 314.598V219.409Z" fill="#21214C"/>
</g>
<g filter="url(#filter6_d)">
<mask id="mask2" style="mask-type:alpha" maskUnits="userSpaceOnUse" x="17" y="189" width="256" height="156">
<path d="M17 219.409C17 203.092 30.2275 189.865 46.5445 189.865H244C260.016 189.865 273 202.848 273 218.865V314.598C273 330.915 259.772 344.143 243.456 344.143H46.5445C30.2275 344.143 17 330.915 17 314.598V219.409Z" fill="white"/>
</mask>
<g mask="url(#mask2)">
<path d="M171.695 232.731C171.84 232.048 171.601 231.349 171.084 230.879L155.7 216.917L153.267 214.724L140.324 202.972C139.802 202.498 139.068 202.333 138.395 202.545C117.593 209.107 98.6836 220.554 87.6015 235.626C86.5372 237.074 87.9257 239.091 89.7201 239.002C92.2282 238.877 94.4666 239.149 95.1906 239.923C95.4887 240.242 95.2796 240.722 95.0089 241.065C77.1116 263.718 84.1175 286.191 68.8213 304.022C67.5645 305.487 68.6629 307.864 70.5708 307.57C81.9461 305.82 107.371 300.585 128.981 286.685C131.609 285 131.671 288.185 131.174 294.151C131.028 295.9 132.989 296.955 134.284 295.771C149.297 282.044 167.075 254.448 171.695 232.731Z" fill="url(#paint7_linear)"/>
<path d="M166.98 227.722L155.664 217.429L154.646 216.501L144.316 207.144C97.3779 221.55 94.1609 286.134 94.1609 286.134C94.1609 286.134 157.596 276.24 166.98 227.722Z" fill="url(#paint8_linear)"/>
<path d="M163.278 224.368L155.787 217.611L148.296 210.847C117.266 220.355 115.143 262.684 115.143 262.684C115.143 262.684 157.072 256.229 163.278 224.368Z" fill="#FFF0E6"/>
<path d="M229.368 192.333C236.281 213.723 239.801 236.054 239.799 258.523C223.373 276.296 199.743 293.66 169.987 310.69C169.757 310.804 169.497 310.844 169.243 310.803C168.989 310.763 168.754 310.643 168.572 310.462C168.391 310.281 168.271 310.048 168.23 309.796C168.189 309.543 168.229 309.284 168.344 309.055C185.14 280.676 199.686 254.249 205.09 235.757L211.529 206.683L229.368 192.333Z" fill="url(#paint9_linear)"/>
<path d="M169.833 231.53C160.309 221.753 150.152 212.589 139.426 204.094C137.276 200.53 136.226 196.451 139.18 193.305L151.577 180.087C152.949 178.577 154.874 177.66 156.932 177.537C158.99 177.413 161.014 178.093 162.564 179.427L192.979 206.862C194.463 208.267 195.321 210.19 195.366 212.213C195.41 214.235 194.638 216.193 193.217 217.659L180.819 230.878C177.866 234.024 173.599 233.34 169.833 231.53Z" fill="#555463"/>
<path d="M173.151 141.183C151.422 136.074 129.04 134.431 106.812 136.313C90.5943 154.203 75.3414 179.225 60.948 210.341C60.8371 210.585 60.8082 210.86 60.866 211.122C60.9237 211.384 61.0648 211.62 61.2675 211.793C61.4703 211.966 61.7234 212.066 61.9881 212.079C62.2527 212.092 62.5141 212.016 62.732 211.863C89.4185 192.731 114.362 176.001 132.201 169.091L160.428 160.216L173.151 141.183Z" fill="url(#paint10_linear)"/>
<path opacity="0.09" d="M173.151 141.433C154.371 140.08 105.083 131.472 61.0909 210.358C60.2 211.227 61.8603 212.604 62.8726 211.875C89.5251 192.805 114.436 176.129 132.253 169.242L160.445 160.396L173.151 141.433Z" fill="black"/>
<path opacity="0.11" d="M229.088 192.333C235.243 226.772 230.96 267.037 170.015 310.516C169.198 311.479 167.718 309.928 168.38 308.884C185.096 280.548 199.572 254.162 204.951 235.698L211.351 206.66L229.088 192.333Z" fill="black"/>
<path d="M208.443 223.089C204.117 226.118 198.577 226.703 194.317 223.568C185.408 216.998 177.365 208.811 169.411 201.526C161.458 194.241 153.456 187.549 146.182 179.151C142.708 175.155 142.829 169.575 145.486 165.003C216.372 43.0076 330.695 14.3625 337.839 18.7238C342.772 25.5054 323.795 142.124 208.443 223.089Z" fill="white"/>
<path d="M172.389 186.61L193.969 172.919C194.946 172.101 195.825 172.919 195.1 173.966L183.317 196.717C159.335 221.193 131.387 248.002 101.232 276.096C101.137 276.197 101.006 276.256 100.867 276.26C100.729 276.264 100.595 276.212 100.495 276.117C100.394 276.021 100.336 275.89 100.332 275.751C100.328 275.612 100.379 275.477 100.474 275.376C126.102 242.479 150.515 212.011 172.389 186.61Z" fill="url(#paint11_linear)"/>
<path opacity="0.11" d="M195.302 173.821C195.367 173.995 195.384 174.184 195.35 174.367C195.316 174.551 195.232 174.721 195.108 174.859L183.448 197.41C159.716 221.673 132.059 248.247 102.219 276.095C102.137 276.183 102.027 276.239 101.909 276.256C101.79 276.272 101.669 276.247 101.567 276.184C101.333 276.046 195.116 173.44 195.302 173.821Z" fill="black"/>
</g>
</g>
<g filter="url(#filter7_d)">
<path d="M277.963 246.95C277.963 230.633 291.19 217.406 307.507 217.406H402C418.569 217.406 432 230.837 432 247.406V342.139C432 358.456 418.773 371.684 402.456 371.684H307.507C291.19 371.684 277.963 358.456 277.963 342.139V246.95Z" fill="#21214C"/>
</g>
<g filter="url(#filter8_d)">
<path d="M277.764 124.109C277.764 117.482 283.136 112.109 289.764 112.109H357.586C368.033 112.109 376.502 120.578 376.502 131.025V191.971C376.502 202.418 368.033 210.887 357.586 210.887H296.68C286.233 210.887 277.764 202.418 277.764 191.971V124.109Z" fill="#21214C"/>
</g>
<g filter="url(#filter9_d)">
<mask id="mask3" style="mask-type:alpha" maskUnits="userSpaceOnUse" x="277" y="112" width="100" height="99">
<path d="M277.764 124.109C277.764 117.482 283.136 112.109 289.764 112.109H357.586C368.033 112.109 376.502 120.578 376.502 131.025V191.971C376.502 202.418 368.033 210.887 357.586 210.887H296.68C286.233 210.887 277.764 202.418 277.764 191.971V124.109Z" fill="white"/>
</mask>
<g mask="url(#mask3)">
<path d="M209.381 220.621C205.056 223.65 199.516 224.235 195.255 221.1C186.346 214.53 178.303 206.343 170.349 199.058C162.396 191.773 154.394 185.081 147.12 176.683C143.646 172.687 143.767 167.108 146.424 162.535C217.31 40.5398 331.633 11.8947 338.777 16.2561C343.71 23.0376 324.733 139.656 209.381 220.621Z" fill="white"/>
<path opacity="0.05" d="M146.29 162.522C144.989 164.681 144.359 167.182 144.483 169.703C144.607 172.224 145.478 174.65 146.985 176.669C148.303 178.504 155.731 185.943 157.428 187.397C179.34 155.181 265.353 48.9997 338.241 16.256C331.088 11.8951 217.004 40.5377 146.29 162.522Z" fill="black"/>
<path opacity="0.04" d="M337.829 16.0735C337.972 16.1169 338.111 16.1767 338.241 16.2516C284.298 23.9196 189.705 93.6196 144.683 171.352C144.396 169.729 144.396 168.068 144.683 166.445C144.683 166.267 144.74 166.089 144.788 165.911C144.837 165.733 144.901 165.498 144.958 165.295C145.079 164.907 145.208 164.486 145.354 164.137C145.418 163.992 145.467 163.838 145.54 163.684C145.777 163.129 146.047 162.588 146.348 162.065C215.917 42.3567 327.519 12.8346 337.829 16.0735Z" fill="black"/>
<path d="M267.276 130.406C285.752 129.638 300.106 114.039 299.338 95.5634C298.57 77.088 282.971 62.7333 264.495 63.5012C246.02 64.2691 231.665 79.8688 232.433 98.3441C233.201 116.819 248.801 131.174 267.276 130.406Z" fill="#737373"/>
<path d="M265.81 129.258C284.285 128.49 298.64 112.891 297.872 94.4154C297.104 75.9401 281.504 61.5854 263.029 62.3533C244.553 63.1212 230.199 78.7209 230.967 97.1962C231.734 115.672 247.334 130.026 265.81 129.258Z" fill="#B3B2BD"/>
<path d="M269.965 122.603C284.795 119.548 294.341 105.049 291.286 90.2188C288.231 75.3884 273.732 65.8425 258.901 68.8975C244.071 71.9526 234.525 86.4517 237.58 101.282C240.635 116.113 255.134 125.658 269.965 122.603Z" fill="url(#paint12_linear)"/>
</g>
</g>
<path d="M379.054 263.908C379.622 265.495 379.961 267.154 380.062 268.837V269.361L376.388 279.177C377.238 286.93 378.046 296.499 377.149 298.819C376.708 299.953 375.375 302.011 373.207 304.908L375.558 326.66L384.87 319.988C385.344 319.648 385.731 319.2 385.997 318.68C386.264 318.161 386.403 317.586 386.403 317.002V268.606C386.403 267.808 386.144 267.033 385.665 266.395C385.186 265.758 384.513 265.294 383.747 265.073C382.576 264.737 380.996 264.328 379.054 263.908Z" fill="white"/>
<path d="M347.99 268.867C352.363 267.394 357.097 267.394 361.47 268.867L362.598 267.015L363.349 261.766C363.349 261.766 358.1 261.487 354.772 261.487C351.68 261.487 348.793 261.598 346.111 261.776L346.867 267.025L347.99 268.867Z" fill="white"/>
<path d="M332.27 298.819C331.377 296.52 332.186 286.93 333.031 279.177L329.383 269.361V268.836C329.482 267.156 329.82 265.498 330.385 263.913C328.443 264.333 326.869 264.742 325.661 265.078C324.894 265.298 324.22 265.762 323.74 266.399C323.259 267.036 323 267.813 323 268.61V317.001C323 317.586 323.14 318.161 323.408 318.681C323.675 319.2 324.063 319.648 324.538 319.988L333.887 326.686L336.238 304.955C334.065 302.031 332.716 299.963 332.27 298.819Z" fill="white"/>
<path d="M367.885 244.339C367.932 244.338 367.978 244.35 368.018 244.375C368.057 244.399 368.09 244.434 368.111 244.475L369.349 246.78C372.662 252.937 378.273 264.511 378.273 268.826V269.025L374.598 278.941V279.103C375.748 289.528 376.084 296.651 375.496 298.157C374.971 299.501 372.913 302.357 371.166 304.65L373.711 325.4L372.179 326.497L356.862 337.473C356.238 337.921 355.489 338.161 354.72 338.161C353.952 338.161 353.203 337.921 352.579 337.473L340.191 328.549L338.307 327.2L335.792 325.4L338.312 304.692C336.564 302.393 334.469 299.501 333.945 298.147C333.357 296.64 333.693 289.517 334.847 279.093V278.93L331.173 269.02V268.815C331.173 264.49 336.774 252.916 340.096 246.769L341.335 244.465C341.356 244.423 341.388 244.388 341.428 244.364C341.468 244.34 341.514 244.328 341.561 244.328C341.625 244.327 341.687 244.349 341.736 244.391C341.784 244.432 341.816 244.491 341.823 244.554L345.136 267.65L347.188 271.025L347.713 270.852C349.969 270.06 352.335 269.628 354.726 269.571C357.126 269.637 359.501 270.071 361.77 270.857L362.295 271.025L364.316 267.66L367.622 244.565C367.63 244.501 367.661 244.443 367.71 244.401C367.759 244.359 367.821 244.337 367.885 244.339ZM367.885 242.239C367.315 242.235 366.764 242.439 366.333 242.811C365.902 243.184 365.622 243.701 365.544 244.265L362.295 266.915L361.324 268.49C359.175 267.84 356.948 267.487 354.705 267.44C352.47 267.479 350.253 267.833 348.117 268.49L347.146 266.915L343.897 244.265C343.82 243.701 343.54 243.183 343.109 242.81C342.678 242.437 342.126 242.234 341.556 242.239C341.126 242.236 340.703 242.351 340.333 242.57C339.963 242.789 339.66 243.105 339.456 243.483L338.223 245.788C336.69 248.633 329.058 263.11 329.058 268.836V269.414L329.189 269.771L332.701 279.219C331.478 290.405 331.231 297.034 331.966 298.929C332.144 299.386 332.664 300.724 336.102 305.301L333.682 325.169L333.535 326.402L334.548 327.127L337.063 328.927L338.942 330.276L351.335 339.158C352.316 339.861 353.492 340.239 354.699 340.239C355.906 340.239 357.083 339.861 358.064 339.158L373.365 328.192L374.898 327.095L375.905 326.371L375.758 325.137L373.333 305.249C376.735 300.719 377.26 299.386 377.433 298.95C378.173 297.05 377.926 290.415 376.698 279.235L380.21 269.786L380.341 269.429V268.852C380.341 263.125 372.709 248.643 371.181 245.798L369.943 243.499C369.739 243.12 369.436 242.804 369.066 242.585C368.696 242.366 368.273 242.252 367.843 242.255L367.885 242.239Z" fill="white"/>
<path d="M339.838 301.37L344.337 300.057C344.433 300.032 344.52 299.977 344.583 299.9L348.882 295.003C348.951 294.924 349.042 294.868 349.143 294.842C349.244 294.815 349.351 294.819 349.45 294.853C349.548 294.888 349.634 294.951 349.697 295.034C349.76 295.118 349.796 295.219 349.801 295.323L350.546 309.359C350.551 309.474 350.52 309.588 350.457 309.684C350.158 310.12 349.297 311.453 349.297 312.272C349.297 313.322 350.872 314.697 352.373 315.794C352.39 315.749 352.409 315.706 352.431 315.663C352.956 314.708 353.664 314.534 354.005 315.269C354.122 315.812 354.163 316.369 354.126 316.923H354.152V318.214C354.153 318.294 354.135 318.373 354.1 318.445C353.822 319.012 352.478 321.411 349.602 321.411C348.373 321.411 345.355 321.012 344.006 317.327C342.337 312.755 342.321 306.356 342.321 306.089V305.648L342.048 305.307C341.329 304.419 340.473 303.322 339.592 302.157C339.547 302.092 339.517 302.017 339.506 301.938C339.494 301.86 339.5 301.779 339.524 301.704C339.548 301.628 339.588 301.558 339.643 301.5C339.697 301.443 339.764 301.398 339.838 301.37Z" fill="white"/>
<path d="M367.485 305.322L367.212 305.663V306.104C367.212 306.372 367.212 312.771 365.527 317.342C364.178 321.017 361.16 321.426 359.932 321.426C357.055 321.426 355.733 319.027 355.433 318.461C355.399 318.389 355.381 318.31 355.381 318.23V316.938C355.347 316.384 355.389 315.828 355.507 315.285C355.822 314.55 356.52 314.723 357.082 315.679C357.082 315.721 357.118 315.768 357.139 315.81C358.667 314.713 360.215 313.337 360.215 312.288C360.215 311.469 359.355 310.136 359.055 309.7C358.993 309.603 358.961 309.49 358.966 309.374L359.711 295.338C359.717 295.234 359.753 295.134 359.816 295.05C359.878 294.967 359.964 294.903 360.063 294.869C360.162 294.835 360.268 294.831 360.369 294.857C360.47 294.884 360.561 294.94 360.63 295.018L364.929 299.916C364.993 299.993 365.079 300.048 365.176 300.073L369.669 301.385C369.751 301.409 369.827 301.452 369.888 301.511C369.95 301.57 369.997 301.644 370.023 301.725C370.05 301.806 370.057 301.893 370.043 301.977C370.029 302.062 369.994 302.142 369.942 302.209C369.065 303.354 368.204 304.435 367.485 305.322Z" fill="white"/>
<path d="M345.241 290.589C345.214 290.778 345.121 290.951 344.977 291.078C344.834 291.204 344.65 291.274 344.459 291.276C344.532 291.601 344.725 291.887 344.999 292.075C345.274 292.264 345.609 292.342 345.939 292.295C346.153 292.265 346.356 292.181 346.53 292.052C346.703 291.922 346.841 291.751 346.931 291.554C347.067 291.264 347.092 290.934 347.001 290.626C346.91 290.319 346.71 290.055 346.438 289.885H348.637C348.654 289.885 348.67 289.892 348.681 289.904C348.693 289.915 348.7 289.932 348.7 289.948C348.72 290.349 348.658 290.749 348.519 291.126C348.38 291.502 348.166 291.846 347.891 292.138C347.616 292.43 347.284 292.663 346.916 292.823C346.548 292.983 346.152 293.067 345.751 293.071C345.35 293.074 344.952 292.996 344.582 292.841C344.212 292.687 343.876 292.459 343.596 292.172C343.316 291.885 343.097 291.544 342.952 291.17C342.807 290.796 342.739 290.396 342.753 289.995V289.885H345.047H345.01C345.103 289.975 345.172 290.086 345.212 290.208C345.253 290.331 345.262 290.461 345.241 290.589Z" fill="white"/>
<path d="M343.792 287.56C343.716 287.56 343.641 287.543 343.572 287.511C343.503 287.48 343.442 287.433 343.393 287.376C342.732 286.604 340.768 284.011 344.175 284.011C346.726 284.011 348.742 285.554 349.865 286.667C349.937 286.741 349.986 286.834 350.006 286.936C350.025 287.037 350.014 287.142 349.975 287.237C349.935 287.332 349.868 287.414 349.782 287.471C349.696 287.528 349.596 287.559 349.492 287.56H343.792Z" fill="white"/>
<path d="M364.431 289.911C364.419 289.909 364.406 289.909 364.394 289.911H366.688V290.021C366.682 290.809 366.363 291.562 365.801 292.115C365.239 292.668 364.481 292.975 363.693 292.969C362.905 292.962 362.152 292.643 361.599 292.082C361.047 291.52 360.74 290.762 360.746 289.974V289.911H363.003C362.747 290.073 362.556 290.318 362.46 290.605C362.364 290.892 362.371 291.203 362.478 291.486C362.564 291.702 362.707 291.892 362.892 292.034C363.077 292.176 363.296 292.266 363.528 292.294C363.856 292.34 364.19 292.261 364.462 292.072C364.734 291.884 364.926 291.599 364.998 291.276C364.807 291.273 364.623 291.202 364.48 291.076C364.337 290.95 364.243 290.777 364.216 290.588C364.196 290.466 364.206 290.342 364.243 290.224C364.28 290.107 364.345 289.999 364.431 289.911Z" fill="white"/>
<path d="M359.943 287.56C359.839 287.56 359.738 287.53 359.651 287.473C359.565 287.416 359.497 287.335 359.457 287.239C359.416 287.144 359.405 287.039 359.424 286.937C359.444 286.835 359.493 286.741 359.565 286.667C360.688 285.554 362.715 284.011 365.26 284.011C368.656 284.011 366.699 286.604 366.042 287.376C365.993 287.433 365.932 287.48 365.863 287.511C365.794 287.543 365.719 287.56 365.643 287.56H359.943Z" fill="white"/>
<path d="M359.885 323.437C359.532 323.438 359.179 323.396 358.836 323.311C358.738 323.292 358.636 323.301 358.543 323.337C358.45 323.373 358.37 323.435 358.311 323.516C357.909 324.087 357.376 324.554 356.756 324.876C356.136 325.199 355.448 325.367 354.749 325.367C354.051 325.367 353.362 325.199 352.742 324.876C352.122 324.554 351.589 324.087 351.188 323.516C351.129 323.434 351.049 323.371 350.956 323.334C350.863 323.297 350.761 323.287 350.663 323.306C350.338 323.384 350.005 323.422 349.671 323.421H349.361C349.267 323.414 349.172 323.433 349.088 323.475C349.003 323.517 348.931 323.582 348.88 323.661C348.829 323.741 348.801 323.833 348.797 323.927C348.794 324.022 348.817 324.115 348.862 324.198C349.435 325.266 350.286 326.158 351.326 326.78C352.365 327.402 353.554 327.73 354.765 327.73C355.976 327.73 357.165 327.402 358.204 326.78C359.244 326.158 360.095 325.266 360.667 324.198C360.713 324.116 360.735 324.023 360.732 323.929C360.729 323.834 360.701 323.743 360.651 323.664C360.6 323.584 360.529 323.52 360.446 323.477C360.362 323.434 360.268 323.415 360.174 323.421L359.885 323.437ZM356.164 317.563C356.536 317.689 356.89 317.865 357.214 318.088C356.872 317.553 356.458 317.359 356.164 317.563ZM352.332 318.025C352.639 317.824 352.97 317.663 353.319 317.547C353.035 317.38 352.663 317.526 352.332 318.051V318.025Z" fill="white"/>
<path d="M353.161 316.476C352.774 316.603 352.406 316.78 352.064 317.001C352.431 316.476 352.846 316.271 353.161 316.476Z" fill="white"/>
<path d="M357.508 317.075C357.143 316.823 356.746 316.622 356.327 316.477C356.652 316.251 357.114 316.477 357.508 317.075Z" fill="white"/>
<path d="M352.657 322.67C352.613 322.67 352.57 322.683 352.534 322.707C352.498 322.732 352.471 322.767 352.456 322.808C352.441 322.849 352.439 322.894 352.45 322.936C352.462 322.978 352.486 323.016 352.52 323.043C353.15 323.53 353.924 323.793 354.72 323.788C355.514 323.789 356.287 323.529 356.919 323.048C356.952 323.02 356.975 322.982 356.986 322.94C356.997 322.898 356.995 322.853 356.981 322.813C356.966 322.772 356.939 322.736 356.904 322.711C356.868 322.685 356.826 322.671 356.782 322.67H352.657Z" fill="white"/>
<path d="M334.811 267.408C335.01 265.309 336.968 260.647 339.01 256.411C339.049 256.331 339.114 256.265 339.193 256.224C339.273 256.183 339.364 256.168 339.453 256.182C339.541 256.196 339.623 256.238 339.686 256.302C339.749 256.366 339.79 256.449 339.802 256.537L340.207 259.319C340.212 259.36 340.212 259.4 340.207 259.44C339.97 261.015 339.02 266.474 336.579 270.311C336.538 270.378 336.478 270.431 336.407 270.466C336.337 270.5 336.258 270.514 336.18 270.506C336.101 270.498 336.027 270.468 335.965 270.419C335.903 270.371 335.856 270.306 335.829 270.232L334.847 267.608C334.821 267.545 334.808 267.477 334.811 267.408Z" fill="white"/>
<path d="M372.945 270.311C370.509 266.474 369.554 261.004 369.323 259.44C369.318 259.4 369.318 259.36 369.323 259.319L369.722 256.537C369.735 256.449 369.775 256.366 369.838 256.302C369.901 256.238 369.983 256.196 370.072 256.182C370.16 256.168 370.251 256.183 370.331 256.224C370.411 256.265 370.475 256.331 370.514 256.411C372.546 260.647 374.504 265.288 374.714 267.408C374.729 267.47 374.729 267.535 374.714 267.597L373.737 270.222C373.717 270.306 373.67 270.382 373.605 270.439C373.54 270.497 373.458 270.533 373.372 270.542C373.286 270.552 373.199 270.535 373.122 270.494C373.046 270.452 372.984 270.389 372.945 270.311Z" fill="white"/>
<defs>
<filter id="filter0_d" x="262.764" y="0.96582" width="128.738" height="128.777" filterUnits="userSpaceOnUse" color-interpolation-filters="sRGB">
<feFlood flood-opacity="0" result="BackgroundImageFix"/>
<feColorMatrix in="SourceAlpha" type="matrix" values="0 0 0 0 0 0 0 0 0 0 0 0 0 0 0 0 0 0 127 0" result="hardAlpha"/>
<feOffset dy="10"/>
<feGaussianBlur stdDeviation="7.5"/>
<feColorMatrix type="matrix" values="0 0 0 0 0.512977 0 0 0 0 0.512977 0 0 0 0 0.659505 0 0 0 0.2 0"/>
<feBlend mode="normal" in2="BackgroundImageFix" result="effect1_dropShadow"/>
<feBlend mode="normal" in="SourceGraphic" in2="effect1_dropShadow" result="shape"/>
</filter>
<filter id="filter1_d" x="21.6211" y="21.9478" width="264.441" height="184.278" filterUnits="userSpaceOnUse" color-interpolation-filters="sRGB">
<feFlood flood-opacity="0" result="BackgroundImageFix"/>
<feColorMatrix in="SourceAlpha" type="matrix" values="0 0 0 0 0 0 0 0 0 0 0 0 0 0 0 0 0 0 127 0" result="hardAlpha"/>
<feOffset dy="10"/>
<feGaussianBlur stdDeviation="7.5"/>
<feColorMatrix type="matrix" values="0 0 0 0 0.512977 0 0 0 0 0.512977 0 0 0 0 0.659505 0 0 0 0.2 0"/>
<feBlend mode="normal" in2="BackgroundImageFix" result="effect1_dropShadow"/>
<feBlend mode="normal" in="SourceGraphic" in2="effect1_dropShadow" result="shape"/>
</filter>
<filter id="filter2_d" x="74.0383" y="5.25204" width="102.661" height="102.693" filterUnits="userSpaceOnUse" color-interpolation-filters="sRGB">
<feFlood flood-opacity="0" result="BackgroundImageFix"/>
<feColorMatrix in="SourceAlpha" type="matrix" values="0 0 0 0 0 0 0 0 0 0 0 0 0 0 0 0 0 0 127 0" result="hardAlpha"/>
<feOffset dy="7.97443"/>
<feGaussianBlur stdDeviation="5.98083"/>
<feColorMatrix type="matrix" values="0 0 0 0 0.0748958 0 0 0 0 0.0748958 0 0 0 0 0.429436 0 0 0 0.2 0"/>
<feBlend mode="normal" in2="BackgroundImageFix" result="effect1_dropShadow"/>
<feBlend mode="normal" in="SourceGraphic" in2="effect1_dropShadow" result="shape"/>
</filter>
<filter id="filter3_d" x="74.0383" y="5.25204" width="102.661" height="102.693" filterUnits="userSpaceOnUse" color-interpolation-filters="sRGB">
<feFlood flood-opacity="0" result="BackgroundImageFix"/>
<feColorMatrix in="SourceAlpha" type="matrix" values="0 0 0 0 0 0 0 0 0 0 0 0 0 0 0 0 0 0 127 0" result="hardAlpha"/>
<feOffset dy="7.97443"/>
<feGaussianBlur stdDeviation="5.98083"/>
<feColorMatrix type="matrix" values="0 0 0 0 0.310729 0 0 0 0 0.292292 0 0 0 0 0.575 0 0 0 0.25 0"/>
<feBlend mode="normal" in2="BackgroundImageFix" result="effect1_dropShadow"/>
<feBlend mode="normal" in="SourceGraphic" in2="effect1_dropShadow" result="shape"/>
</filter>
<filter id="filter4_d" x="89.7863" y="25.921" width="71.166" height="61.3237" filterUnits="userSpaceOnUse" color-interpolation-filters="sRGB">
<feFlood flood-opacity="0" result="BackgroundImageFix"/>
<feColorMatrix in="SourceAlpha" type="matrix" values="0 0 0 0 0 0 0 0 0 0 0 0 0 0 0 0 0 0 127 0" result="hardAlpha"/>
<feOffset dy="7.97443"/>
<feGaussianBlur stdDeviation="5.98083"/>
<feColorMatrix type="matrix" values="0 0 0 0 0.310729 0 0 0 0 0.292292 0 0 0 0 0.575 0 0 0 0.25 0"/>
<feBlend mode="normal" in2="BackgroundImageFix" result="effect1_dropShadow"/>
<feBlend mode="normal" in="SourceGraphic" in2="effect1_dropShadow" result="shape"/>
</filter>
<filter id="filter5_d" x="0" y="184.865" width="286" height="184.278" filterUnits="userSpaceOnUse" color-interpolation-filters="sRGB">
<feFlood flood-opacity="0" result="BackgroundImageFix"/>
<feColorMatrix in="SourceAlpha" type="matrix" values="0 0 0 0 0 0 0 0 0 0 0 0 0 0 0 0 0 0 127 0" result="hardAlpha"/>
<feOffset dy="10"/>
<feGaussianBlur stdDeviation="7.5"/>
<feColorMatrix type="matrix" values="0 0 0 0 0.310729 0 0 0 0 0.292292 0 0 0 0 0.575 0 0 0 0.25 0"/>
<feBlend mode="normal" in2="BackgroundImageFix" result="effect1_dropShadow"/>
<feBlend mode="normal" in="SourceGraphic" in2="effect1_dropShadow" result="shape"/>
</filter>
<filter id="filter6_d" x="45.8369" y="184.865" width="242.163" height="150.954" filterUnits="userSpaceOnUse" color-interpolation-filters="sRGB">
<feFlood flood-opacity="0" result="BackgroundImageFix"/>
<feColorMatrix in="SourceAlpha" type="matrix" values="0 0 0 0 0 0 0 0 0 0 0 0 0 0 0 0 0 0 127 0" result="hardAlpha"/>
<feOffset dy="10"/>
<feGaussianBlur stdDeviation="7.5"/>
<feColorMatrix type="matrix" values="0 0 0 0 0.310729 0 0 0 0 0.292292 0 0 0 0 0.575 0 0 0 0.25 0"/>
<feBlend mode="normal" in2="BackgroundImageFix" result="effect1_dropShadow"/>
<feBlend mode="normal" in="SourceGraphic" in2="effect1_dropShadow" result="shape"/>
</filter>
<filter id="filter7_d" x="262.963" y="212.406" width="184.037" height="184.278" filterUnits="userSpaceOnUse" color-interpolation-filters="sRGB">
<feFlood flood-opacity="0" result="BackgroundImageFix"/>
<feColorMatrix in="SourceAlpha" type="matrix" values="0 0 0 0 0 0 0 0 0 0 0 0 0 0 0 0 0 0 127 0" result="hardAlpha"/>
<feOffset dy="10"/>
<feGaussianBlur stdDeviation="7.5"/>
<feColorMatrix type="matrix" values="0 0 0 0 0.512977 0 0 0 0 0.512977 0 0 0 0 0.659505 0 0 0 0.2 0"/>
<feBlend mode="normal" in2="BackgroundImageFix" result="effect1_dropShadow"/>
<feBlend mode="normal" in="SourceGraphic" in2="effect1_dropShadow" result="shape"/>
</filter>
<filter id="filter8_d" x="262.764" y="107.109" width="128.738" height="128.777" filterUnits="userSpaceOnUse" color-interpolation-filters="sRGB">
<feFlood flood-opacity="0" result="BackgroundImageFix"/>
<feColorMatrix in="SourceAlpha" type="matrix" values="0 0 0 0 0 0 0 0 0 0 0 0 0 0 0 0 0 0 127 0" result="hardAlpha"/>
<feOffset dy="10"/>
<feGaussianBlur stdDeviation="7.5"/>
<feColorMatrix type="matrix" values="0 0 0 0 0.310729 0 0 0 0 0.292292 0 0 0 0 0.575 0 0 0 0.25 0"/>
<feBlend mode="normal" in2="BackgroundImageFix" result="effect1_dropShadow"/>
<feBlend mode="normal" in="SourceGraphic" in2="effect1_dropShadow" result="shape"/>
</filter>
<filter id="filter9_d" x="262.764" y="107.109" width="91.7116" height="128.777" filterUnits="userSpaceOnUse" color-interpolation-filters="sRGB">
<feFlood flood-opacity="0" result="BackgroundImageFix"/>
<feColorMatrix in="SourceAlpha" type="matrix" values="0 0 0 0 0 0 0 0 0 0 0 0 0 0 0 0 0 0 127 0" result="hardAlpha"/>
<feOffset dy="10"/>
<feGaussianBlur stdDeviation="7.5"/>
<feColorMatrix type="matrix" values="0 0 0 0 0.310729 0 0 0 0 0.292292 0 0 0 0 0.575 0 0 0 0.25 0"/>
<feBlend mode="normal" in2="BackgroundImageFix" result="effect1_dropShadow"/>
<feBlend mode="normal" in="SourceGraphic" in2="effect1_dropShadow" result="shape"/>
</filter>
<linearGradient id="paint0_linear" x1="250.605" y1="45.8766" x2="334.573" y2="45.8766" gradientUnits="userSpaceOnUse">
<stop stop-color="#E555AC"/>
<stop offset="1" stop-color="#9043C6"/>
</linearGradient>
<linearGradient id="paint1_linear" x1="236.331" y1="73.5347" x2="304.198" y2="78.3899" gradientUnits="userSpaceOnUse">
<stop stop-color="#43B59A"/>
<stop offset="1" stop-color="#145DEB"/>
</linearGradient>
<linearGradient id="paint2_linear" x1="27.2371" y1="168.627" x2="168.739" y2="168.627" gradientUnits="userSpaceOnUse">
<stop stop-color="#E555AC"/>
<stop offset="1" stop-color="#9043C6"/>
</linearGradient>
<linearGradient id="paint3_linear" x1="71.5935" y1="217.387" x2="191.326" y2="217.387" gradientUnits="userSpaceOnUse">
<stop stop-color="#E555AC"/>
<stop offset="1" stop-color="#9043C6"/>
</linearGradient>
<linearGradient id="paint4_linear" x1="251.138" y1="47.6423" x2="335.106" y2="47.6423" gradientUnits="userSpaceOnUse">
<stop stop-color="#E555AC"/>
<stop offset="1" stop-color="#9043C6"/>
</linearGradient>
<linearGradient id="paint5_linear" x1="236.864" y1="75.3003" x2="304.731" y2="80.1555" gradientUnits="userSpaceOnUse">
<stop stop-color="#43B59A"/>
<stop offset="1" stop-color="#145DEB"/>
</linearGradient>
<linearGradient id="paint6_linear" x1="86" y1="9.23926" x2="178.637" y2="32.3893" gradientUnits="userSpaceOnUse">
<stop stop-color="#FF78E1"/>
<stop offset="1" stop-color="#441C99"/>
</linearGradient>
<linearGradient id="paint7_linear" x1="80.0417" y1="202.207" x2="208.07" y2="238.691" gradientUnits="userSpaceOnUse">
<stop stop-color="#F99048"/>
<stop offset="1" stop-color="#E555AC"/>
</linearGradient>
<linearGradient id="paint8_linear" x1="104.674" y1="207.144" x2="192.618" y2="229.982" gradientUnits="userSpaceOnUse">
<stop stop-color="#F99048"/>
<stop offset="1" stop-color="#E555AC"/>
</linearGradient>
<linearGradient id="paint9_linear" x1="148.073" y1="243.535" x2="238.261" y2="243.535" gradientUnits="userSpaceOnUse">
<stop stop-color="#E555AC"/>
<stop offset="1" stop-color="#9043C6"/>
</linearGradient>
<linearGradient id="paint10_linear" x1="29.2363" y1="168.626" x2="170.738" y2="168.626" gradientUnits="userSpaceOnUse">
<stop stop-color="#E555AC"/>
<stop offset="1" stop-color="#9043C6"/>
</linearGradient>
<linearGradient id="paint11_linear" x1="73.5928" y1="217.387" x2="193.325" y2="217.387" gradientUnits="userSpaceOnUse">
<stop stop-color="#E555AC"/>
<stop offset="1" stop-color="#9043C6"/>
</linearGradient>
<linearGradient id="paint12_linear" x1="239.802" y1="72.832" x2="307.669" y2="77.6873" gradientUnits="userSpaceOnUse">
<stop stop-color="#43B59A"/>
<stop offset="1" stop-color="#145DEB"/>
</linearGradient>
</defs>
</svg>
