<?xml version="1.0" encoding="utf-8"?>
<!-- Generator: Adobe Illustrator 25.1.0, SVG Export Plug-In . SVG Version: 6.00 Build 0)  -->
<svg version="1.1" id="Layer_1" xmlns="http://www.w3.org/2000/svg" xmlns:xlink="http://www.w3.org/1999/xlink" x="0px" y="0px"
	 viewBox="0 0 334.5 107.7" style="enable-background:new 0 0 334.5 107.7;" xml:space="preserve">
<style type="text/css">
	.st0{fill:#FFFFFF;}
	.st1{fill:#2EA3A3;}
	.st2{fill:#26285D;}
	.st3{fill:none;}
	.st4{font-family:'PrentonRPProLight-Regular';}
	.st5{font-size:24px;}
	.st6{fill:none;stroke:#FFFFFF;stroke-width:1.5;stroke-linecap:round;stroke-miterlimit:10;}
	.st7{fill:#3DBBD2;}
	.st8{fill:#368A9D;}
	.st9{fill:#343738;}
</style>
<g>
	<path class="st0" d="M325.5,102.1H8.1c-2.8,0-5-2.2-5-5V20.4c0-2.8,2.2-5,5-5h317.3c2.8,0,5,2.2,5,5v76.7
		C330.5,99.8,328.2,102.1,325.5,102.1z"/>
	<g>
		<path class="st1" d="M166.6,103.1V14.4h158.9c3.3,0,6,2.7,6,6v76.7c0,3.3-2.7,6-6,6H166.6z"/>
		<path class="st2" d="M325.5,15.4c2.8,0,5,2.2,5,5v76.7c0,2.8-2.2,5-5,5H167.6V15.4H325.5 M325.5,13.4H167.6h-2v2v86.7v2h2h157.9
			c3.9,0,7-3.1,7-7V20.4C332.5,16.5,329.3,13.4,325.5,13.4L325.5,13.4z"/>
	</g>
	<rect x="190.9" y="36.1" class="st3" width="128.9" height="54.9"/>
	<text transform="matrix(1 0 0 1 190.9121 54.8336)" class="st0 st4 st5">Join the </text>
	<text transform="matrix(1 0 0 1 190.9121 80.0336)" class="st0 st4 st5">community</text>
</g>
<g>
	<line class="st6" x1="279.1" y1="44.8" x2="285.2" y2="50"/>
	<line class="st6" x1="285.2" y1="50.1" x2="279.1" y2="55.3"/>
</g>
<g>
	<line class="st6" x1="290.1" y1="44.8" x2="296.2" y2="50"/>
	<line class="st6" x1="296.2" y1="50.1" x2="290.1" y2="55.3"/>
</g>
<g>
	<g>
		<path class="st7" d="M100.5,32.5l-18,11.9l-18-11.9c-2-1.4-4.8,0.1-4.8,2.6v25.1c0,2.4,2.7,3.9,4.8,2.6l18-11.9l18,11.9
			c2,1.4,4.8-0.1,4.8-2.6V35C105.3,32.6,102.5,31.1,100.5,32.5z M65.3,55.8V39.4l12.4,8.2L65.3,55.8z M99.7,55.8l-12.4-8.2l12.4-8.2
			V55.8z"/>
		<polygon class="st8" points="87.4,47.6 89,48.7 84.1,51.8 82.5,50.8 		"/>
		<polygon class="st8" points="81,43.3 82.6,44.4 77.7,47.6 76.1,46.5 		"/>
		<path class="st9" d="M21.7,68.2c5.4,0,9.1,3.5,9.1,8.5c0,5.1-3.8,8.5-9.2,8.5h-7.2V68.2H21.7z M18.7,81.8h3.1c2.7,0,4.6-2,4.6-5.1
			c0-3-2-5.1-4.8-5.1h-2.9V81.8z"/>
		<path class="st9" d="M45.5,79.8h-9.2c0.4,1.6,1.5,2.4,3.1,2.4c1.1,0,2.3-0.5,3.1-1.3l2.2,2.2c-1.3,1.5-3.3,2.3-5.7,2.3
			c-4.3,0-7-2.7-7-6.7c0-4.1,2.8-6.8,6.9-6.8C43.5,72,45.8,75,45.5,79.8z M41.4,77.6c0-1.6-1-2.7-2.5-2.7c-1.5,0-2.5,1.1-2.7,2.7
			H41.4z"/>
		<path class="st9" d="M50.5,85.3l-5-13.2h4.3l2.8,9.3l2.9-9.3h4.2l-5,13.2H50.5z"/>
		<path class="st9" d="M74.6,69.9L73,73.3c-1.8-1-4.1-1.8-5.5-1.8c-1.1,0-1.9,0.4-1.9,1.2c0,3,9,1.3,9,7.4c0,3.4-3,5.2-6.8,5.2
			c-2.9,0-5.8-1.1-7.8-2.7l1.7-3.3c1.8,1.5,4.4,2.6,6.2,2.6c1.4,0,2.2-0.5,2.2-1.5c0-3-9-1.2-9-7.3c0-3.1,2.7-5.1,6.8-5.1
			C70.3,68,72.8,68.7,74.6,69.9z"/>
		<path class="st9" d="M89.4,79.8h-9.2c0.4,1.6,1.5,2.4,3.1,2.4c1.1,0,2.3-0.5,3.1-1.3l2.2,2.2c-1.3,1.5-3.3,2.3-5.7,2.3
			c-4.3,0-7-2.7-7-6.7c0-4.1,2.8-6.8,6.9-6.8C87.4,72,89.7,75,89.4,79.8z M85.3,77.6c0-1.6-1-2.7-2.5-2.7c-1.5,0-2.5,1.1-2.7,2.7
			H85.3z"/>
		<path class="st9" d="M103.3,74.9l-3,1.8c-0.6-0.9-1.5-1.4-2.7-1.4c-1.6,0-2.8,1.3-2.8,3.3c0,2,1.1,3.3,2.8,3.3
			c1.2,0,2.1-0.5,2.7-1.5l3.1,1.8c-1.1,1.9-3.2,3.1-6,3.1c-4.1,0-6.8-2.7-6.8-6.7c0-4.1,2.8-6.8,6.8-6.8C100,72,102.1,73,103.3,74.9
			z"/>
		<path class="st9" d="M120,70.9l-2.5,3c-1.1-1.4-2.8-2.2-4.3-2.2c-2.7,0-4.8,2.1-4.8,5c0,2.9,2,5,4.8,5c1.4,0,3.1-0.8,4.3-2
			l2.5,2.7c-1.8,1.9-4.5,3.1-7.1,3.1c-5.1,0-9-3.8-9-8.8c0-4.9,3.9-8.6,9.1-8.6C115.7,68,118.3,69.2,120,70.9z"/>
		<path class="st9" d="M135,78.7c0,4.1-2.9,6.7-7.2,6.7c-4.3,0-7.2-2.7-7.2-6.7c0-4.1,2.9-6.7,7.2-6.7C132.1,72,135,74.6,135,78.7z
			 M124.9,78.7c0,2,1.2,3.4,3,3.4c1.7,0,2.9-1.4,2.9-3.4c0-2-1.2-3.4-2.9-3.4C126.1,75.3,124.9,76.7,124.9,78.7z"/>
		<path class="st9" d="M150.2,77v8.3H146v-7.1c0-1.5-0.9-2.5-2.3-2.5c-1.5,0-2.5,1.1-2.7,2.7v7h-4.2V72.1h4.2v2.1
			c0.9-1.5,2.4-2.3,4.4-2.3C148.3,71.9,150.2,73.9,150.2,77z"/>
	</g>
</g>
</svg>
