<svg id="Layer_1" data-name="Layer 1" xmlns="http://www.w3.org/2000/svg" xmlns:xlink="http://www.w3.org/1999/xlink" viewBox="0 0 1440 397.21"><defs><style>.cls-1{fill:none;}.cls-2{clip-path:url(#clip-path);}.cls-3{fill-rule:evenodd;fill:url(#linear-gradient);}</style><clipPath id="clip-path"><rect class="cls-1" width="1440" height="397.21"/></clipPath><linearGradient id="linear-gradient" x1="-141.88" y1="1003.06" x2="1628.41" y2="-155.83" gradientTransform="matrix(1, 0, 0, -1, -8.36, 406.83)" gradientUnits="userSpaceOnUse"><stop offset="0" stop-color="#14c4eb"/><stop offset="1" stop-color="#0a26b8"/></linearGradient></defs><g class="cls-2"><path class="cls-3" d="M1386.56,11.68c131.07,38.54,192.07,225.2,192.07,225.2l30.56-603.68,109.89,5.56-39.23,727c-80.74-81.25-247.91-177.54-577.25-39.89-261.14,109.15-407.24,53.48-519.87,10.57-29.41-11.21-56.55-21.55-82.85-27.86-127-30.45-280.29-16.83-453.68,56.84s-324.19-59-324.19-59l5.62-111.08q14.78,6.42,30.86,13c181.81,74.8,306.14,8.53,431-58C247.16,119.68,305,88.86,368.63,71.89c112-29.83,201.52,27.21,291.43,84.46,71.79,45.72,143.8,91.57,227.59,93.45,96,2.14,189.47-69.44,275.42-135.25C1246.13,51,1322.15-7.26,1386.56,11.68Z"/></g></svg>