<svg width="823" height="244" viewBox="0 0 823 244" fill="none" xmlns="http://www.w3.org/2000/svg">
<path fill-rule="evenodd" clip-rule="evenodd" d="M821 123.5L821 124.754L822.5 124.754L822.5 123.245L822 123.245L822 122L820.49 122L820.49 123.5L821 123.5ZM821 127.773L821 130.792L822.5 130.792L822.5 127.773L821 127.773ZM821 133.811L821 136.83L822.5 136.83L822.5 133.811L821 133.811ZM821 139.849L821 142.868L822.5 142.868L822.5 139.849L821 139.849ZM821 145.887L821 148.905L822.5 148.905L822.5 145.887L821 145.887ZM821 151.924L821 154.943L822.5 154.943L822.5 151.924L821 151.924ZM821 157.962L821 160.981L822.5 160.981L822.5 157.962L821 157.962ZM821 164L821 167.019L822.5 167.019L822.5 164L821 164ZM821 170.038L821 173.056L822.5 173.056L822.5 170.038L821 170.038ZM821 176.075L821 179.094L822.5 179.094L822.5 176.075L821 176.075ZM821 182.113L821 185.132L822.5 185.132L822.5 182.113L821 182.113ZM821 188.151L821 191.17L822.5 191.17L822.5 188.151L821 188.151ZM821 194.189L821 197.207L822.5 197.207L822.5 194.189L821 194.189ZM821 200.226L821 203.245L822.5 203.245L822.5 200.226L821 200.226ZM821 206.264L821 209.283L822.5 209.283L822.5 206.264L821 206.264ZM821 212.302L821 215.321L822.5 215.321L822.5 212.302L821 212.302ZM821 218.34L821 221.358L822.5 221.358L822.5 218.34L821 218.34ZM821 224.377L821 227.396L822.5 227.396L822.5 224.377L821 224.377ZM821 230.415L821 233.434L822.5 233.434L822.5 230.415L821 230.415ZM821 236.453L821 239.472L822.5 239.472L822.5 236.453L821 236.453ZM821 242.491L821 244L822.5 244L822.5 242.491L821 242.491ZM817.47 122L814.45 122L814.45 123.5L817.47 123.5L817.47 122ZM811.43 122L808.41 122L808.41 123.5L811.43 123.5L811.43 122ZM805.39 122L802.37 122L802.37 123.5L805.39 123.5L805.39 122ZM799.35 122L796.33 122L796.33 123.5L799.35 123.5L799.35 122ZM793.31 122L790.29 122L790.29 123.5L793.31 123.5L793.31 122ZM787.27 122L784.25 122L784.25 123.5L787.27 123.5L787.27 122ZM781.23 122L778.21 122L778.21 123.5L781.23 123.5L781.23 122ZM775.19 122L772.17 122L772.17 123.5L775.19 123.5L775.19 122ZM769.15 122L766.13 122L766.13 123.5L769.15 123.5L769.15 122ZM763.11 122L760.09 122L760.09 123.5L763.11 123.5L763.11 122ZM757.07 122L754.05 122L754.05 123.5L757.07 123.5L757.07 122ZM751.03 122L748.01 122L748.01 123.5L751.03 123.5L751.03 122ZM744.99 122L741.97 122L741.97 123.5L744.99 123.5L744.99 122ZM738.95 122L735.93 122L735.93 123.5L738.95 123.5L738.95 122ZM732.91 122L729.89 122L729.89 123.5L732.91 123.5L732.91 122ZM726.87 122L723.85 122L723.85 123.5L726.87 123.5L726.87 122ZM720.83 122L717.81 122L717.81 123.5L720.83 123.5L720.83 122ZM714.79 122L711.77 122L711.77 123.5L714.79 123.5L714.79 122ZM708.75 122L705.73 122L705.73 123.5L708.75 123.5L708.75 122ZM702.71 122L699.69 122L699.69 123.5L702.71 123.5L702.71 122ZM696.67 122L693.65 122L693.65 123.5L696.67 123.5L696.67 122ZM690.63 122L687.61 122L687.61 123.5L690.63 123.5L690.63 122ZM684.59 122L681.57 122L681.57 123.5L684.59 123.5L684.59 122ZM678.55 122L675.53 122L675.53 123.5L678.55 123.5L678.55 122ZM672.51 122L671 122L671 123.5L672.51 123.5L672.51 122Z" fill="#4BD6B5"/>
<path fill-rule="evenodd" clip-rule="evenodd" d="M1.99994 120.5V119.246H0.499939V120.755H1V122H2.50999V120.5H1.99994ZM1.99994 116.227V113.208H0.499939V116.227H1.99994ZM1.99994 110.189V107.17H0.499939V110.189H1.99994ZM1.99994 104.151V101.132H0.499939V104.151H1.99994ZM1.99994 98.1135V95.0946H0.499939V98.1135H1.99994ZM1.99994 92.0757V89.0568H0.499939V92.0757H1.99994ZM1.99994 86.038V83.0191L0.499939 83.0191V86.038L1.99994 86.038ZM1.99994 80.0002V76.9813L0.499939 76.9813V80.0002L1.99994 80.0002ZM1.99994 73.9625V70.9436L0.499939 70.9436V73.9625L1.99994 73.9625ZM1.99994 67.9247V64.9058L0.499939 64.9058V67.9247L1.99994 67.9247ZM1.99994 61.887V58.8681H0.499939V61.887H1.99994ZM1.99994 55.8492V52.8303H0.499939V55.8492H1.99994ZM1.99994 49.8115L1.99995 46.7926H0.499954L0.499939 49.8115H1.99994ZM1.99995 43.7737V40.7548H0.499954V43.7737H1.99995ZM1.99995 37.736V34.7171H0.499954V37.736H1.99995ZM1.99995 31.6982V28.6793H0.499954V31.6982H1.99995ZM1.99995 25.6605V22.6416H0.499954V25.6605H1.99995ZM1.99995 19.6227V16.6038H0.499954V19.6227H1.99995ZM1.99995 13.585V10.5661H0.499954V13.585H1.99995ZM1.99995 7.5472V4.52833H0.499954V7.5472H1.99995ZM1.99995 1.50945V2.72084e-08L0.499954 0V1.50945H1.99995ZM5.53 122H8.55V120.5H5.53V122ZM11.57 122H14.59V120.5H11.57V122ZM17.61 122H20.63V120.5H17.61V122ZM23.65 122H26.67V120.5H23.65V122ZM29.69 122H32.71V120.5H29.69V122ZM35.73 122H38.75V120.5H35.73V122ZM41.77 122H44.79V120.5H41.77V122ZM47.81 122H50.83V120.5H47.81V122ZM53.85 122H56.87V120.5H53.85V122ZM59.89 122H62.91V120.5H59.89V122ZM65.93 122H68.95V120.5H65.93V122ZM71.97 122H74.99V120.5H71.97V122ZM78.01 122H81.03V120.5H78.01V122ZM84.05 122H87.07V120.5H84.05V122ZM90.09 122H93.11V120.5H90.09V122ZM96.13 122H99.15V120.5H96.13V122ZM102.17 122H105.19V120.5H102.17V122ZM108.21 122H111.23V120.5H108.21V122ZM114.25 122H117.27V120.5H114.25V122ZM120.29 122H123.31V120.5H120.29V122ZM126.33 122H129.35V120.5H126.33V122ZM132.37 122H135.39V120.5H132.37V122ZM138.41 122H141.43V120.5H138.41V122ZM144.45 122H147.47V120.5H144.45V122ZM150.49 122H152V120.5H150.49V122Z" fill="#4BD6B5"/>
</svg>
