<svg xmlns="http://www.w3.org/2000/svg" xmlns:xlink="http://www.w3.org/1999/xlink" viewBox="0 0 55 56.36"><defs><style>.cls-1{fill-rule:evenodd;fill:url(#linear-gradient);}.cls-2{fill:url(#linear-gradient-2);}</style><linearGradient id="linear-gradient" x1="1.38" y1="34.88" x2="58.77" y2="21.4" gradientTransform="matrix(1, 0, 0, -1, 0, 57.89)" gradientUnits="userSpaceOnUse"><stop offset="0" stop-color="#9043c6"/><stop offset="1" stop-color="#145deb"/></linearGradient><linearGradient id="linear-gradient-2" x1="3.75" y1="24.39" x2="54.14" y2="24.39" gradientTransform="matrix(1, 0, 0, -1, 0, 57.89)" gradientUnits="userSpaceOnUse"><stop offset="0" stop-color="#e555ac"/><stop offset="1" stop-color="#9043c6"/></linearGradient></defs><path class="cls-1" d="M23.48,56.35a1.15,1.15,0,0,1-.37,0C7.34,51,0,40.25,0,22.34V8.26a1.17,1.17,0,0,1,.21-.72,1.24,1.24,0,0,1,.61-.45l22.31-7a1.23,1.23,0,0,1,.71,0l22.31,7a1.24,1.24,0,0,1,.61.45,1.17,1.17,0,0,1,.21.72V22.34c0,.39,0,.79,0,1.17a15.15,15.15,0,0,0-3.23-.36h-.06a14.05,14.05,0,0,0-5.2-5.21,14.59,14.59,0,0,0-9.55-1.76,14.37,14.37,0,0,0-8.51,4.63,13.72,13.72,0,0,0-3.48,9v0a13.29,13.29,0,0,0,.17,2.09,10.59,10.59,0,0,0-3.21,2.94,10.1,10.1,0,0,0,1.63,13.55A10.66,10.66,0,0,0,22.4,51H34.56a39.66,39.66,0,0,1-10.7,5.35A1.21,1.21,0,0,1,23.48,56.35Z" transform="translate(0 0)"/><path class="cls-2" d="M55,37.08a10.78,10.78,0,0,0-3.3-7.73,11.46,11.46,0,0,0-8-3.2,10.8,10.8,0,0,0-1.88.19A11,11,0,0,0,37,20.54a11.56,11.56,0,0,0-7.58-1.4,11.41,11.41,0,0,0-6.74,3.66,10.7,10.7,0,0,0-2.72,7,10.21,10.21,0,0,0,.76,3.86,7.52,7.52,0,0,0-4.36,2.93,7.11,7.11,0,0,0,1.16,9.55A7.61,7.61,0,0,0,22.43,48H45v-.12a11.41,11.41,0,0,0,7.13-3.55A10.74,10.74,0,0,0,55,37.08Z" transform="translate(0 0)"/></svg>
