<svg width="64" height="64" viewBox="0 0 64 64" fill="none" xmlns="http://www.w3.org/2000/svg">
<path fill-rule="evenodd" clip-rule="evenodd" d="M45.134 19.1727L47.8916 20.0334C47.1575 11.0576 39.5692 4 30.3163 4C20.5776 4 12.6828 11.8182 12.6828 21.4624C12.6828 29.2767 17.8659 35.8922 25.0133 38.1213C25.0051 37.7705 25.001 37.4168 25.001 37.0601V27.6149C24.9838 26.8029 25.2287 26.0086 25.6965 25.3481C26.1812 24.6636 26.8764 24.1629 27.6691 23.9164L27.6735 23.915L42.8696 19.1716C43.6058 18.9428 44.3944 18.9428 45.1306 19.1716L45.134 19.1727ZM16.934 39.1216C19.4658 41.0114 22.3661 42.3354 25.4342 43.0197C26.0449 46.9465 27.3193 50.4212 29.3707 53.4085C31.2153 56.0946 33.6082 58.2701 36.5011 60H5.91223C4.80792 60 3.90455 59.1036 3.98942 58.0026C4.26921 54.3724 5.31267 50.8324 7.06119 47.613C8.89096 44.2441 11.4423 41.3196 14.5295 39.0405C15.2451 38.5122 16.2211 38.5896 16.934 39.1216Z" fill="#441C99"/>
<path d="M44 59.991C43.9151 60.003 43.8289 60.003 43.744 59.991C33.0006 56.409 28.0008 49.1344 28.0008 37.0601V27.5715C27.9928 27.397 28.0433 27.2249 28.1446 27.0819C28.2459 26.9388 28.3922 26.8329 28.5608 26.7807L43.76 22.0364C43.9162 21.9879 44.0838 21.9879 44.24 22.0364L59.4392 26.7807C59.6077 26.8329 59.7541 26.9388 59.8554 27.0819C59.9567 27.2249 60.0072 27.397 59.9992 27.5715V37.0601C59.9992 49.1344 54.9994 56.409 44.256 59.991C44.1711 60.003 44.0849 60.003 44 59.991Z" fill="#441C99"/>
</svg>
