<svg height="32" width="31" xmlns="http://www.w3.org/2000/svg"><path d="M10.764 16.834H4.36a4 4 0 00-4.003 4.002v6.4a4.002 4.002 0 004.003 4.003h6.403a4.004 4.004 0 004.002-4.004v-6.399a4.002 4.002 0 00-4.002-4.002m16.067 0h-6.403a4 4 0 00-4.003 4.002v6.4a4.002 4.002 0 004.003 4.003h6.403a4.004 4.004 0 004.002-4.004v-6.399a4.002 4.002 0 00-4.002-4.002M19.625.325H12.33a4.004 4.004 0 00-4.004 4.002v7.294a4.002 4.002 0 004.004 4.002h7.294c2.21 0 4.002-1.79 4.002-4.002V4.327A4.003 4.003 0 0019.625.325" fill="#202042" fill-rule="evenodd"/></svg>