<svg height="50" width="50" xmlns="http://www.w3.org/2000/svg"><path d="M49.93 22.852a20.763 20.763 0 00-.47-2.987c-.099-.494-.27-.997-.404-1.497l-.235-.69-.118-.346-.145-.376a20.549 20.549 0 00-1.286-2.674 20.907 20.907 0 00-3.202-4.228l-.192-.194-.094-.094-.138-.13-.374-.347-.355-.332-.415-.344-.33-.274-.156-.13-.04-.033-.01-.008-.112-.076-.02-.015-.08-.057-.576-.4-.777-.543c.2-.805.368-1.616.506-2.438.142-.82 1.069-3.81-.687-4.541-1.652-.687-3.789 2.464-3.789 2.464a32.081 32.081 0 00-7.498 18.033 7.344 7.344 0 012.996 1.412l.026-.004a31.886 31.886 0 005.435-7.24 13.338 13.338 0 013.608 3.369l.136.185.15.227.303.455c.164.291.35.562.503.877a14.05 14.05 0 011.378 3.873c.13.632.214 1.27.252 1.911a14.326 14.326 0 01-.146 3.218c-.06.442-.156.817-.222 1.13-.158.62-.263.972-.263.972s.153-.332.392-.93c.107-.304.258-.67.375-1.106.147-.485.27-.979.365-1.479.112-.595.19-1.197.232-1.8a14.23 14.23 0 00.006-2.044 15.544 15.544 0 00-.927-4.393c-.12-.366-.298-.732-.448-1.098l-.238-.494-.121-.244-.147-.276c-.363-.663-.771-1.3-1.225-1.904a15.943 15.943 0 00-2.773-2.854 32.55 32.55 0 00.884-2.209l.123.066.615.34.085.048.02.01.005.003c.095.066-.12-.08-.094-.066l.01.007.04.028.17.113.357.24.187.128.096.064.049.031.01.01.006.003a1.268 1.268 0 00-.054-.044l.023.017.388.292.408.31.051.038.008.006c-.084-.073-.019-.019-.037-.033l.015.01.023.023.104.084.208.172a18.4 18.4 0 014.573 5.695l.145.285.152.33.305.66c.158.429.348.835.486 1.287.606 1.754.95 3.59 1.023 5.446.022.447.029.886.01 1.32 0 .432-.04.853-.072 1.265a19.41 19.41 0 01-.861 4.217c-.167.567-.374 1.041-.523 1.442-.157.396-.312.694-.402.905l-.145.32.177-.302c.111-.201.294-.483.492-.864.19-.384.446-.84.673-1.397.274-.615.513-1.244.718-1.887a19.81 19.81 0 00.595-2.328c.078-.423.163-.855.209-1.304.063-.446.105-.907.128-1.376.058-.97.048-1.944-.032-2.91m-26.913 2.07l-.016-.02a31.278 31.278 0 00-9.14-1.298 13.516 13.516 0 011.212-4.906l.096-.21.124-.242.252-.483c.177-.286.323-.58.524-.866a13.865 13.865 0 012.711-3.075 14.379 14.379 0 013.054-1.98c.443-.213.897-.402 1.36-.565.41-.159.783-.252 1.086-.346.615-.157.975-.232.975-.232s-.364.026-.999.097c-.315.05-.705.093-1.14.196a14.648 14.648 0 00-3.141 1.042 14.13 14.13 0 00-1.782.971c-.617.392-1.205.828-1.761 1.305a15.412 15.412 0 00-1.618 1.619c-.26.28-.494.615-.742.922l-.314.447-.156.223-.17.262a15.604 15.604 0 00-1.07 1.997 16.091 16.091 0 00-1.174 3.9l-.009.056c-.755.07-1.505.166-2.253.292l.002-.397.004-.71v-.128c.009-.114-.017.146-.013.117l.002-.013.003-.05.017-.202.04-.432.02-.226.007-.115.005-.058.002-.015v-.007c.004-.02-.022.144-.01.071l.003-.031.07-.482.075-.51.007-.066.002-.007c-.023.108-.005.025-.009.047l.002-.016.005-.033.026-.132.049-.266a18.54 18.54 0 012.77-6.776l.177-.265.216-.291.43-.588c.295-.342.558-.708.885-1.047a18.741 18.741 0 014.25-3.509c.378-.234.758-.45 1.142-.639.377-.21.762-.375 1.135-.542a18.627 18.627 0 014.083-1.256c.575-.122 1.085-.168 1.506-.225.419-.05.752-.058.979-.078l.346-.024-.346-.011c-.227-.004-.562-.031-.987-.026-.424.017-.945.008-1.538.072a19.305 19.305 0 00-4.299.853c-.4.133-.82.263-1.23.44-.422.156-.84.341-1.261.545-.871.41-1.71.884-2.516 1.416a20.367 20.367 0 00-2.372 1.847c-.385.326-.74.718-1.11 1.075l-.49.54-.243.267-.256.31a20.68 20.68 0 00-3.861 7.28l-.077.26-.04.13-.045.182-.123.5-.118.474-.103.533-.078.422-.04.202-.01.051-.003.013-.013.135-.003.024-.008.097-.076.705c-.069.646-.114 1.083-.132 1.256-.727.2-1.451.42-2.164.673 0 0-3.823.903-3.604 2.806.203 1.79 3.969 2.155 3.969 2.155a31.354 31.354 0 0019.263-2.102 7.492 7.492 0 01-.223-3.33m9.539 4.67a7.405 7.405 0 01-2.714 1.911l-.009.022a32.009 32.009 0 003.65 8.646 13.257 13.257 0 01-4.591 1.466l-.227.027-.27.022-.54.042c-.332 0-.657.03-1.005.01a13.6 13.6 0 01-4.02-.694c-.605-.194-1.2-.434-1.773-.714a14.217 14.217 0 01-2.703-1.714c-.354-.265-.63-.538-.869-.748-.457-.441-.707-.71-.707-.71s.212.298.61.805c.21.243.451.555.768.871a14.36 14.36 0 002.537 2.136c.563.38 1.153.716 1.764 1.01a15.074 15.074 0 004.244 1.347c.374.073.778.094 1.168.144l.544.033.269.014.312.006c.749.01 1.5-.04 2.243-.141a15.63 15.63 0 003.722-.994c.455.626.934 1.234 1.435 1.823l-.07.044-.598.372-.081.053-.022.013-.006.003.107-.053-.012.006-.042.024-.183.093-.383.194-.2.104-.103.051-.052.028-.013.007-.007.004a.68.68 0 01.067-.028l-.026.011-.446.196-.464.209-.062.026-.005.003.045-.016-.016.007-.03.011-.124.05-.25.098a18.07 18.07 0 01-7.163 1.22l-.318-.012-.357-.029-.72-.058c-.446-.072-.892-.101-1.35-.204a18.538 18.538 0 01-5.201-1.779c-.397-.2-.78-.408-1.143-.637-.375-.212-.718-.454-1.055-.686a19.192 19.192 0 01-1.82-1.437 18.75 18.75 0 01-1.4-1.391c-.408-.429-.714-.84-.987-1.17-.263-.333-.446-.615-.582-.796l-.205-.288.174.304c.12.198.274.498.505.859.235.357.506.805.872 1.277a19.326 19.326 0 002.995 3.228c.324.276.658.563 1.023.823.353.277.73.537 1.124.79.807.526 1.65.997 2.527 1.403.908.42 1.846.769 2.805 1.053.48.157.996.252 1.493.38l.711.132.356.064.393.057c.976.135 1.957.196 2.942.187a20.55 20.55 0 005.222-.736l.261-.073.127-.037.18-.057.484-.157.46-.15.503-.196.399-.156.19-.075.046-.016.01-.004.124-.06.022-.011.087-.044.633-.311.789-.387c.537.52 1.09 1.022 1.663 1.503 0 0 2.735 2.841 4.24 1.673 1.415-1.1-.213-4.545-.213-4.545a31.895 31.895 0 00-11.708-15.58m-4.05.049c1.913-.161 3.333-1.856 3.174-3.786-.158-1.93-1.838-3.364-3.751-3.203-1.912.161-3.334 1.854-3.174 3.785.16 1.93 1.839 3.365 3.75 3.204" fill="#4fa7dd" fill-rule="evenodd"/></svg>