<svg height="35" width="37" xmlns="http://www.w3.org/2000/svg" xmlns:xlink="http://www.w3.org/1999/xlink"><linearGradient id="a"><stop offset="0" stop-color="#345ba9"/><stop offset="1" stop-color="#4a7bbe"/></linearGradient><linearGradient id="c" x1="29.636%" x2="29.636%" xlink:href="#a" y1="16.289%" y2="479.639%"/><linearGradient id="e" x1="97.529%" x2="46.929%" xlink:href="#a" y1="33.74%" y2="69.11%"/><mask id="b" fill="#fff"><path d="M.72.728a1.23 1.23 0 00-.269.976L5.39 32.626c.126.782.777 1.354 1.546 1.362H30.62a1.172 1.172 0 001.163-1.01l4.939-31.27a1.218 1.218 0 00-.27-.974c-.224-.27-.55-.42-.895-.417L1.616.31h-.011A1.146 1.146 0 00.72.728zm12.076 10.898h11.441L22.404 22.66h-7.56z" fill-rule="evenodd"/></mask><mask id="d" fill="#fff"><path d="M18.265.825h10.612l-3.268 22.117c-.089.61-.57 1.052-1.131 1.045H1.443a1.447 1.447 0 01-.99-.412l8.678-11.32h7.352z" fill-rule="evenodd"/></mask><mask id="f" fill="#fff"><path d="M18.265.825l-1.782 11.43H9.13L.453 23.575c.276.264.625.408.99.412h23.035c.562.007 1.042-.436 1.13-1.045L28.878.825z" fill-rule="evenodd"/></mask><g fill="none" fill-rule="evenodd"><path d="M-5.234 39.601h47.643V-5.3H-5.234z" fill="#4a7bbd" mask="url(#b)"/><path d="M-184.875 215.073h625.34V-40.865h-625.34z" fill="url(#c)" mask="url(#d)" transform="translate(6 11)"/><path d="M18.265.825l-1.782 11.43H9.13L.453 23.575c.276.264.625.408.99.412h23.035c.562.007 1.042-.436 1.13-1.045L28.878.825z" fill="url(#e)" mask="url(#f)" transform="translate(6 11)"/></g></svg>