<svg xmlns="http://www.w3.org/2000/svg" xmlns:xlink="http://www.w3.org/1999/xlink" viewBox="0 0 52 56.36"><defs><style>.cls-1,.cls-2{fill-rule:evenodd;}.cls-1{fill:url(#linear-gradient);}.cls-2{fill:url(#linear-gradient-2);}</style><linearGradient id="linear-gradient" x1="1.38" y1="34.88" x2="58.77" y2="21.4" gradientTransform="matrix(1, 0, 0, -1, 0, 57.89)" gradientUnits="userSpaceOnUse"><stop offset="0" stop-color="#9043c6"/><stop offset="1" stop-color="#145deb"/></linearGradient><linearGradient id="linear-gradient-2" x1="19.31" y1="41.86" x2="60.56" y2="2.28" gradientTransform="matrix(1, 0, 0, -1, 0, 57.89)" gradientUnits="userSpaceOnUse"><stop offset="0" stop-color="#14b7eb"/><stop offset="1" stop-color="#145deb"/></linearGradient></defs><path class="cls-1" d="M23.11,56.35a1.15,1.15,0,0,0,.37,0,1.21,1.21,0,0,0,.38,0A39.66,39.66,0,0,0,34.56,51H23.5A4.49,4.49,0,0,1,19,46.5v-27A4.49,4.49,0,0,1,23.5,15H47V8.26a1.17,1.17,0,0,0-.21-.72,1.24,1.24,0,0,0-.61-.45L23.84.05a1.23,1.23,0,0,0-.71,0L.82,7.09a1.24,1.24,0,0,0-.61.45A1.17,1.17,0,0,0,0,8.26V22.34C0,40.25,7.34,51,23.11,56.35Z" transform="translate(0 0)"/><path class="cls-2" d="M23.5,18A1.5,1.5,0,0,0,22,19.5v27A1.5,1.5,0,0,0,23.5,48h27A1.5,1.5,0,0,0,52,46.5v-27A1.5,1.5,0,0,0,50.5,18Zm15.55,7.61a1.46,1.46,0,0,0-1.77,1L34.1,38.84a1.47,1.47,0,0,0,1,1.78,1.45,1.45,0,0,0,1.77-1l3.18-12.19A1.46,1.46,0,0,0,39.05,25.61Zm2.73,1.7a1.47,1.47,0,0,1,2-.18l4.67,3.92a1.47,1.47,0,0,1,.18,2.05l0,0-4,4.72A1.45,1.45,0,1,1,42.45,36l3.07-3.66-3.56-3A1.45,1.45,0,0,1,41.78,27.31Zm-10.41-.18a1.46,1.46,0,0,1,1.87,2.23l-3.56,3L32.74,36a1.45,1.45,0,0,1-2.22,1.86l-4-4.71,0,0a1.45,1.45,0,0,1,.18-2.05Z" transform="translate(0 0)"/></svg>
