<svg height="44" width="48" xmlns="http://www.w3.org/2000/svg"><mask id="a" fill="#fff"><path d="M.422.413l9.01 26.557v.001h.001l-.001-.001L18.443.413z" fill-rule="evenodd"/></mask><mask id="b" fill="#fff"><path d="M.2.413l20.732 26.555L12.301.413z" fill-rule="evenodd"/></mask><mask id="c" fill="#fff"><path d="M.449 8.484a1.785 1.785 0 00.653 1.997l22.833 16.49L3.09.413z" fill-rule="evenodd"/></mask><mask id="d" fill="#fff"><path d="M5.521.836L.228 17.52h12.313L7.248.836a.89.89 0 00-.862-.642.89.89 0 00-.865.642z" fill-rule="evenodd"/></mask><mask id="e" fill="#fff"><path d="M9.475.413L.782 26.97 21.658.413z" fill-rule="evenodd"/></mask><mask id="f" fill="#fff"><path d="M.792 26.971l22.97-16.49a1.774 1.774 0 00.653-1.997L21.761.413z" fill-rule="evenodd"/></mask><mask id="g" fill="#fff"><path d="M5.617.836L.326 17.52h12.31L7.35.836a.896.896 0 00-.866-.642.896.896 0 00-.866.642z" fill-rule="evenodd"/></mask><g fill="none" fill-rule="evenodd"><path d="M-6.686 33.957h32.241v-40.53H-6.686z" fill="#e0452a" mask="url(#a)" transform="translate(14 17)"/><path d="M-6.66 33.957h34.454v-40.53H-6.66z" fill="#f26e2b" mask="url(#b)" transform="translate(3 17)"/><path d="M-6.546 33.957h37.388v-40.53H-6.546z" fill="#f9a126" mask="url(#c)" transform="translate(0 17)"/><path d="M-6.788 24.63h26.345V-6.918H-6.788z" fill="#e0452a" mask="url(#d)" transform="translate(3)"/><path d="M-6.127 33.957h34.695v-40.53H-6.127z" fill="#f26e2b" mask="url(#e)" transform="translate(23 17)"/><path d="M-6.157 33.957h37.61v-40.53h-37.61z" fill="#f9a126" mask="url(#f)" transform="translate(23 17)"/><path d="M-6.69 24.63h26.345V-6.918H-6.691z" fill="#e0452a" mask="url(#g)" transform="translate(32)"/></g></svg>