<svg height="31" width="32" xmlns="http://www.w3.org/2000/svg"><path d="M27.254 29.369a2.244 2.244 0 112.243-2.242 2.24 2.24 0 01-2.243 2.242m-9.104-2.242a2.244 2.244 0 11-4.488-.003 2.244 2.244 0 014.488.003M13.662 4.439a2.244 2.244 0 014.488 0 2.244 2.244 0 01-4.487 0m-6.86 22.688a2.243 2.243 0 01-2.242 2.242 2.242 2.242 0 110-4.486 2.246 2.246 0 012.243 2.244m21.99-3.572v-3.72c0-2.248-1.49-5.593-5.592-5.593h-3.241c-2.29 0-2.503-1.123-2.514-1.7V8.01A3.888 3.888 0 0015.908.55a3.889 3.889 0 00-1.54 7.46v4.534c0 .417-.122 1.699-2.513 1.699H8.613c-4.103 0-5.592 3.345-5.592 5.593v3.72a3.89 3.89 0 103.079 0v-3.72c0-.42.12-2.515 2.513-2.515h3.242c.984 0 1.813-.148 2.513-.4v6.635a3.89 3.89 0 105.428 3.572 3.886 3.886 0 00-2.349-3.572V16.92c.699.253 1.53.4 2.514.4h3.241c2.287 0 2.501 1.938 2.512 2.516v3.72a3.888 3.888 0 001.54 7.46 3.89 3.89 0 001.54-7.46" fill="#202042" fill-rule="evenodd"/></svg>