<svg height="47" width="48" xmlns="http://www.w3.org/2000/svg"><mask id="a" fill="#fff"><path d="M.154 23.759c0 10.37 6.903 19.338 16.358 22.473.992.247 1.505-.248 1.505-1.237L18 41.045c-6.94 1.481-7.436-2.469-7.931-2.964-.99-2.965-2.746-3.76-2.975-3.952-1.983-.987.497-.987.497-.987 2.478 0 3.469 1.974 3.469 1.974 1.984 3.46 5.453 2.965 6.94 2.47 0-1.974 1.486-3.457 1.486-3.457-5.28-.598-10.407-2.276-10.407-11.361 0-2.963.99-4.939 2.478-6.421-.993-.987-1.553-2.965 0-6.421s1.982-.495 6.443 2.47c1.983-.496 3.964-.988 5.95-.988 1.981 0 3.964.492 5.927.987 4.479-2.964 6.465-2.469 6.465-2.469 1.486 3.456.989 5.434 0 6.421 1.486 1.482 2.478 3.952 2.478 6.42 0 8.893-4.958 10.867-10.409 11.467.989.882 1.486 1.871 1.486 4.342v6.42c0 .988.495 1.483 1.487 1.236 9.419-3.213 16.358-12.003 16.358-22.473C47.74 10.418 37.087.047 23.944.047 10.564.047.154 10.662.154 23.759z" fill-rule="evenodd"/></mask><path d="M-7.414 55.006h62.721V-7.497H-7.414z" fill="#141231" fill-rule="evenodd" mask="url(#a)"/></svg>