<svg height="23" width="35" xmlns="http://www.w3.org/2000/svg"><path d="M11.965 4.808a1.078 1.078 0 00-1.502-.263l-9.657 6.78a1.075 1.075 0 00-.448.993 1.08 1.08 0 00.448.996l9.657 6.779a1.076 1.076 0 001.502-.262 1.077 1.077 0 00-.263-1.502L3.14 12.318l8.562-6.01c.488-.34.605-1.013.263-1.5m22.375 6.516l-9.656-6.778a1.077 1.077 0 10-1.239 1.763l8.562 6.01-8.562 6.01a1.077 1.077 0 101.239 1.764l9.657-6.778c.333-.234.488-.62.448-.996a1.072 1.072 0 00-.448-.995M20.254.598h-.062c-.474 0-.757.19-.95.6-.283.569-.724 1.043-1.2 1.516-.124.158-.219.317-.252.507L14.536 21.7c-.127.728.252 1.106.95 1.106h.756c.632 0 1.043-.285 1.138-.947l3.6-20.378c.096-.538-.188-.884-.726-.884" fill="#202042" fill-rule="evenodd"/></svg>