<svg height="35" width="50" xmlns="http://www.w3.org/2000/svg"><mask id="a" fill="#fff"><path d="M22.027.442v4.801h4.978V.446l-.004-.004zm0 6.162v4.801h4.978V6.606l-.004-.002zm-6.09 0v4.801h4.949V6.606l-.031-.002zm-6.238 0v4.801h4.949V6.606l-.031-.002zm29.352 3.324c-1.016 1.112-1.415 3.083-1.293 4.554.124 1.114.492 2.222 1.138 3.083-.522.248-1.17.497-1.658.741-1.17.367-2.306.491-3.445.491H.913l-.123.74a13.44 13.44 0 001.15 7.025l.513.861v.12c3.073 4.93 8.542 7.145 14.505 7.145 11.464 0 20.868-4.8 25.325-15.151 2.92.125 5.87-.616 7.254-3.324l.37-.617-.614-.367c-1.663-.984-3.937-1.11-5.843-.617l-.035.004c-.28-1.975-1.538-3.573-3.197-4.808l-.644-.497zM7.926 25.574c0-1.356 1.145-2.465 2.674-2.465 1.526 0 2.673 1.11 2.673 2.465 0 1.353-1.276 2.465-2.673 2.465-1.404 0-2.674-1.112-2.674-2.465zm25.162-12.933h-4.947v4.807h4.963v-4.811zm-6.087 0h-4.974v4.807h4.978v-4.811zm-6.146 0h-4.918v4.807h4.949v-4.811zm-6.207 0H9.704v4.807h4.958v-4.811zm-6.149 0H3.585v4.807h4.978v-4.811z" fill-rule="evenodd"/></mask><path d="M-8.588 43.874h67.796V-8.745H-8.588z" fill="#2989c9" fill-rule="evenodd" mask="url(#a)"/></svg>