<svg height="36" width="21" xmlns="http://www.w3.org/2000/svg"><path d="M8.24 12.883c.018-1.446 1.113-2.518 2.56-2.5 1.447.018 2.52 1.116 2.503 2.562-.018 1.445-1.116 2.517-2.563 2.5-1.447-.016-2.52-1.115-2.5-2.562m7.46 11.122a8.23 8.23 0 00.567-1.982c1.705 1.016 2.955 2.478 3.657 4.113 1.672-3.598.454-7.588-2.954-9.983.07-5.603-1.85-11.414-5.6-15.438-.269-.276-.63-.28-.904-.01C6.62 4.634 4.56 10.397 4.403 15.91c-3.284 2.312-4.778 6.272-3.196 9.908.743-1.619 2.029-3.05 3.758-4.022.173.726.344 1.45.609 2.087.086.272.265.455.627.459l9.041.11c.183.001.364-.176.46-.447m.051 8.275v-3.797c0-.724-.543-1.267-1.266-1.267-.724 0-1.266.543-1.266 1.267v3.797c0 .724.542 1.266 1.266 1.266.723 0 1.266-.542 1.266-1.266m-6.785-3.438c0-.724-.543-1.266-1.266-1.266-.724 0-1.266.542-1.266 1.266v3.797c0 .724.542 1.267 1.266 1.267.723 0 1.266-.543 1.266-1.267zm3.437 0c0-.724-.543-1.266-1.266-1.266-.724 0-1.267.542-1.267 1.266v5.244c0 .724.543 1.267 1.267 1.267.723 0 1.266-.543 1.266-1.267z" fill="#202042" fill-rule="evenodd"/></svg>