<svg fill="none" viewBox="0 0 120 83" xmlns="http://www.w3.org/2000/svg" xmlns:xlink="http://www.w3.org/1999/xlink"><linearGradient id="a"><stop offset="0" stop-color="#ffe792"/><stop offset="1" stop-color="#f99048"/></linearGradient><linearGradient id="b" gradientUnits="userSpaceOnUse" x1=".120056" x2=".173033" xlink:href="#a" y1="79.2258" y2="77.9781"/><linearGradient id="c" gradientUnits="userSpaceOnUse" x1="3.06427" x2="6.48546" xlink:href="#a" y1="82.1698" y2="79.8457"/><linearGradient id="d" gradientUnits="userSpaceOnUse" x1="37.9348" x2="37.9878" xlink:href="#a" y1="79.2258" y2="77.9781"/><linearGradient id="e" gradientUnits="userSpaceOnUse" x1="40.8789" x2="44.3001" xlink:href="#a" y1="82.1698" y2="79.8457"/><linearGradient id="f" gradientUnits="userSpaceOnUse" x1="75.7495" x2="75.8024" xlink:href="#a" y1="79.2258" y2="77.9781"/><linearGradient id="g" gradientUnits="userSpaceOnUse" x1="78.6937" x2="82.1149" xlink:href="#a" y1="82.1698" y2="79.8457"/><linearGradient id="h" gradientUnits="userSpaceOnUse" x1="113.564" x2="113.617" xlink:href="#a" y1="79.2258" y2="77.9781"/><linearGradient id="i" gradientUnits="userSpaceOnUse" x1="116.508" x2="119.93" xlink:href="#a" y1="82.1698" y2="79.8457"/><linearGradient id="j" gradientUnits="userSpaceOnUse" x1=".120056" x2=".173033" xlink:href="#a" y1="41.3734" y2="40.1257"/><linearGradient id="k" gradientUnits="userSpaceOnUse" x1="3.06427" x2="6.48546" xlink:href="#a" y1="44.3176" y2="41.9935"/><linearGradient id="l" gradientUnits="userSpaceOnUse" x1="37.9348" x2="37.9878" xlink:href="#a" y1="3.55878" y2="2.31103"/><linearGradient id="m" gradientUnits="userSpaceOnUse" x1="40.8789" x2="44.2987" xlink:href="#a" y1="6.49905" y2="4.17441"/><linearGradient id="n" gradientUnits="userSpaceOnUse" x1="37.9348" x2="37.9878" xlink:href="#a" y1="41.3734" y2="40.1257"/><linearGradient id="o" gradientUnits="userSpaceOnUse" x1="40.8789" x2="44.3001" xlink:href="#a" y1="44.3176" y2="41.9935"/><linearGradient id="p" gradientUnits="userSpaceOnUse" x1="75.7495" x2="75.8024" xlink:href="#a" y1="3.55878" y2="2.31103"/><linearGradient id="q" gradientUnits="userSpaceOnUse" x1="78.6937" x2="82.1135" xlink:href="#a" y1="6.49905" y2="4.17441"/><linearGradient id="r" gradientUnits="userSpaceOnUse" x1="75.7495" x2="75.8024" xlink:href="#a" y1="41.3734" y2="40.1257"/><linearGradient id="s" gradientUnits="userSpaceOnUse" x1="78.6937" x2="82.1149" xlink:href="#a" y1="44.3176" y2="41.9935"/><g stroke-miterlimit="10" stroke-width=".702216"><path d="m.120056 79.2258h5.888224" stroke="url(#b)"/><path d="m3.06427 76.2815v5.8883" stroke="url(#c)"/><path d="m37.9348 79.2258h5.8883" stroke="url(#d)"/><path d="m40.8789 76.2815v5.8883" stroke="url(#e)"/><path d="m75.7495 79.2258h5.8882" stroke="url(#f)"/><path d="m78.6937 76.2815v5.8883" stroke="url(#g)"/><path d="m113.564 79.2258h5.888" stroke="url(#h)"/><path d="m116.508 76.2815v5.8883" stroke="url(#i)"/><path d="m.120056 41.3734h5.888224" stroke="url(#j)"/><path d="m3.06427 38.4294v5.8882" stroke="url(#k)"/><path d="m37.9348 3.55878h5.8883" stroke="url(#l)"/><path d="m40.8789.614599v5.884451" stroke="url(#m)"/><path d="m37.9348 41.3734h5.8883" stroke="url(#n)"/><path d="m40.8789 38.4294v5.8882" stroke="url(#o)"/><path d="m75.7495 3.55878h5.8882" stroke="url(#p)"/><path d="m78.6937.614599v5.884451" stroke="url(#q)"/><path d="m75.7495 41.3734h5.8882" stroke="url(#r)"/><path d="m78.6937 38.4294v5.8882" stroke="url(#s)"/></g></svg>