<svg xmlns="http://www.w3.org/2000/svg" xmlns:xlink="http://www.w3.org/1999/xlink" viewBox="0 0 56 56.36"><defs><style>.cls-1,.cls-2{fill-rule:evenodd;}.cls-1{fill:url(#linear-gradient);}.cls-2{fill:url(#linear-gradient-2);}</style><linearGradient id="linear-gradient" x1="1.38" y1="34.88" x2="58.77" y2="21.4" gradientTransform="matrix(1, 0, 0, -1, 0, 57.89)" gradientUnits="userSpaceOnUse"><stop offset="0" stop-color="#9043c6"/><stop offset="1" stop-color="#145deb"/></linearGradient><linearGradient id="linear-gradient-2" x1="18.13" y1="26.45" x2="65.23" y2="13.14" gradientTransform="matrix(1, 0, 0, -1, 0, 57.89)" gradientUnits="userSpaceOnUse"><stop offset="0" stop-color="#43b59a"/><stop offset="1" stop-color="#145deb"/></linearGradient></defs><path class="cls-1" d="M23.11,56.35a1.15,1.15,0,0,0,.37,0,1.21,1.21,0,0,0,.38,0c1.43-.48,2.79-1,4.08-1.58L15.38,46.94l-.11-.08a4.25,4.25,0,0,1-1.72-3.37A4.09,4.09,0,0,1,15.42,40l0,0-.11-.07a4.17,4.17,0,0,1,0-6.75l.09-.07L15.27,33a4.15,4.15,0,0,1-1.72-3.37,4.09,4.09,0,0,1,2-3.57L34.11,14.52l0,0a4.16,4.16,0,0,1,4.28,0l0,0L47,19.84V8.26a1.17,1.17,0,0,0-.21-.72,1.24,1.24,0,0,0-.61-.45L23.84.05a1.23,1.23,0,0,0-.71,0L.82,7.09a1.24,1.24,0,0,0-.61.45A1.17,1.17,0,0,0,0,8.26V22.34C0,40.25,7.34,51,23.11,56.35Z" transform="translate(0 0)"/><path class="cls-2" d="M35.67,42.14a1.13,1.13,0,0,0,1.2,0l18.6-11.52a1.28,1.28,0,0,0,.53-1,1.3,1.3,0,0,0-.53-1L36.87,17.08a1.13,1.13,0,0,0-1.2,0L17.07,28.67a1.08,1.08,0,0,0-.52,1,1.15,1.15,0,0,0,.52,1Zm18-.75-16.8,10.4a1.13,1.13,0,0,1-1.2,0L19,41.39l-1.88,1.13a1.06,1.06,0,0,0-.52,1,1.27,1.27,0,0,0,.52,1l18.6,11.6a1.17,1.17,0,0,0,1.2,0l18.6-11.6a1.28,1.28,0,0,0,.53-1,1.26,1.26,0,0,0-.53-1Zm-16.8,3.45,16.8-10.4,1.8,1.12a1.15,1.15,0,0,1,0,1.94L36.87,49a1.17,1.17,0,0,1-1.2,0L17.07,37.5a1.16,1.16,0,0,1,0-1.94L19,34.44l16.72,10.4A1.17,1.17,0,0,0,36.87,44.84Z" transform="translate(0 0)"/></svg>
