<svg height="27" width="27" xmlns="http://www.w3.org/2000/svg"><g fill="#202042" fill-rule="evenodd"><path d="M25.632 22.186l-5.854-5.852a11.238 11.238 0 01-3.384 3.381l5.854 5.855a2.392 2.392 0 103.384-3.384M10.384 17.5c-3.957 0-7.177-3.22-7.177-7.175s3.22-7.175 7.177-7.175 7.177 3.219 7.177 7.175-3.22 7.175-7.177 7.175m9.568-7.175c0-5.284-4.283-9.566-9.568-9.566C5.1.76.816 5.041.816 10.325a9.567 9.567 0 009.568 9.567 9.567 9.567 0 009.568-9.567"/><path d="M4.803 10.325h1.595a3.991 3.991 0 013.986-3.986V4.745a5.588 5.588 0 00-5.581 5.58"/></g></svg>