<?xml version="1.0" encoding="UTF-8"?>
<svg width="172px" height="30px" viewBox="0 0 172 30" version="1.1" xmlns="http://www.w3.org/2000/svg" xmlns:xlink="http://www.w3.org/1999/xlink">
    <!-- Generator: Sketch 49.1 (51147) - http://www.bohemiancoding.com/sketch -->
    <title>skyscanner_RGB_loch (1)</title>
    <desc>Created with Sketch.</desc>
    <defs>
        <polygon id="path-1" points="0.0650633336 0.225443038 25.7461407 0.225443038 25.7461407 25.9802532 0.0650633336 25.9802532"></polygon>
    </defs>
    <g id="website-new" stroke="none" stroke-width="1" fill="none" fill-rule="evenodd">
        <g id="Group-62" transform="translate(-16.000000, -24.000000)">
            <g id="skyscanner_RGB_loch-(1)" transform="translate(16.000000, 24.000000)">
                <path d="M57.5246745,11.8069881 C57.4478564,12.0725639 57.1600359,12.2060224 56.9068331,12.1067668 C56.1244757,11.799611 55.2389251,11.5803098 54.4114,11.5803098 C52.9858151,11.5803098 51.6433124,12.016565 51.6433124,13.4671719 C51.6433124,14.2508215 52.0722407,14.6568976 53.4421078,15.0931527 L54.4404129,15.4117095 C56.4376824,16.048823 57.2938906,16.9786735 57.2938906,18.7770103 C57.2938906,21.8807592 55.153535,24 51.2750472,24 C49.7505549,24 48.4469557,23.7562202 47.341501,23.3645631 C47.0728026,23.2696667 46.9435637,22.9655288 47.0233489,22.6872108 L47.4796416,21.0769901 C47.5558003,20.8104084 47.8485661,20.6839917 48.1020987,20.7872711 C49.1010632,21.1977064 50.2084961,21.4760244 51.1889978,21.4760244 C52.9300973,21.4760244 54.1555596,20.866072 54.1555596,19.4443029 C54.1555596,18.603313 53.5848641,18.2844209 52.3007167,17.8770036 L51.2166919,17.529609 C49.304153,16.8911542 48.4482745,15.7302662 48.4482745,13.8732479 C48.4482745,10.7104822 51.0459118,9 54.4694257,9 C55.4987218,9 56.6760492,9.2340554 57.656551,9.57709074 C57.9275572,9.67031051 58.0581149,9.97612501 57.9753624,10.2541077 L57.5246745,11.8069881" id="Fill-1" fill="#00ACC3"></path>
                <g id="Group-5" transform="translate(58.000000, 4.000000)">
                    <mask id="mask-2" fill="white">
                        <use xlink:href="#path-1"></use>
                    </mask>
                    <g id="Clip-3"></g>
                    <path d="M6.3841519,0.225443038 C6.64974684,0.225443038 6.84820253,0.467670886 6.79817722,0.728 L4.70237975,11.5607848 C6.67772152,10.1199241 8.40326582,8.42696203 9.92640506,6.4621519 C10.1199241,6.21005063 10.4207342,6.06359494 10.7383291,6.06359494 L13.0184304,6.06359494 C13.2376203,6.06359494 13.3593924,6.31141772 13.234,6.4904557 C11.7355443,8.60435443 10.0198734,10.5550127 8.20513924,12.1294937 L11.0931139,19.3999494 C11.1832911,19.6296709 11.0144557,19.8774937 10.7692658,19.8774937 L8.34665823,19.8774937 C8.04058228,19.8774937 7.76511392,19.6843038 7.6581519,19.3973165 L5.67063291,13.9817468 C5.07296203,14.3803038 4.50326582,14.7225823 4.01881013,14.978962 L3.17496203,19.3746076 C3.11868354,19.664557 2.8623038,19.8774937 2.56807595,19.8774937 L0.48643038,19.8774937 C0.221493671,19.8774937 0.0220506329,19.6352658 0.0730632911,19.3746076 L3.69331646,0.728 C3.74893671,0.436405063 4.00465823,0.225443038 4.30316456,0.225443038 L6.3841519,0.225443038" id="Fill-2" fill="#00ACC3" mask="url(#mask-2)"></path>
                    <path d="M17.0372405,6.06359494 C17.304481,6.06359494 17.5019494,6.30582278 17.4522532,6.56779747 L16.0400253,13.8395696 C15.9261519,14.3803038 15.8119494,15.0635443 15.8119494,15.7197975 C15.8119494,16.573519 16.2964051,17.1435443 17.4361266,17.1435443 C18.5472152,17.1435443 19.855443,16.6590886 20.8246835,15.7481013 L22.634481,6.56648101 C22.6920759,6.27488608 22.9484557,6.06359494 23.2443291,6.06359494 L25.3259747,6.06359494 C25.5905823,6.06359494 25.7893671,6.30582278 25.7380253,6.56779747 L23.8722785,16.1463291 C23.6445316,17.2564304 23.3878228,18.5100253 23.1604051,19.5072405 C22.0779494,24.0068861 20.0275696,26 15.9261519,26 C15.0233924,26 14.1232658,25.8871139 13.3416203,25.6771392 C13.0543038,25.598481 12.8726329,25.3098481 12.9430633,25.0182532 L13.2994937,23.5632405 C13.3626835,23.2973165 13.6282785,23.1281519 13.8945316,23.1913418 C14.4852911,23.3322025 15.1612911,23.4365316 15.7839747,23.4365316 C18.2062532,23.4365316 19.6283544,22.4113418 20.1407848,19.6211139 L20.3415443,18.5663038 C19.2880506,19.4772911 17.720481,20.0759494 16.2401266,20.0759494 C13.8471392,20.0759494 12.5655696,18.8802785 12.5655696,16.9717468 C12.5655696,15.8323544 12.7936456,14.5787595 13.0500253,13.2705316 L14.3473924,6.56779747 C14.4049873,6.27488608 14.6607089,6.06359494 14.9569114,6.06359494 L17.0372405,6.06359494" id="Fill-4" fill="#00ACC3" mask="url(#mask-2)"></path>
                </g>
                <path d="M94.5255184,11.8066528 C94.4480388,12.0722286 94.1615292,12.2056871 93.9076599,12.1067668 C93.1259403,11.799611 92.239376,11.5803098 91.4118281,11.5803098 C89.9868631,11.5803098 88.6463013,12.016565 88.6463013,13.4671719 C88.6463013,14.2504862 89.0722742,14.6568976 90.4421793,15.0931527 L91.4411714,15.4113742 C93.4378369,16.048823 94.2943984,16.9786735 94.2943984,18.7766749 C94.2943984,21.8804238 92.1539836,24 88.2750587,24 C86.7528321,24 85.4468889,23.7558849 84.343052,23.3645631 C84.0733571,23.2696667 83.9444443,22.9655288 84.0225833,22.6868755 L84.4805371,21.0769901 C84.5560385,20.8100731 84.8494718,20.6839917 85.1033411,20.7869358 C86.1010144,21.1973711 87.208478,21.4760244 88.1883475,21.4760244 C89.9288358,21.4760244 91.1556509,20.866072 91.1556509,19.4439675 C91.1556509,18.6029777 90.5862583,18.2844209 89.3024051,17.8770036 L88.2160423,17.529609 C86.3057584,16.8911542 85.4505156,15.7302662 85.4505156,13.8732479 C85.4505156,10.7104822 88.0465764,9 91.4711741,9 C92.5008284,9 93.6762102,9.23372007 94.6583877,9.57675542 C94.9264341,9.66997519 95.0576548,9.97578969 94.9758891,10.2541077 L94.5255184,11.8066528" id="Fill-6" fill="#00ACC3"></path>
                <path d="M106.477776,12.1238683 C106.40608,12.3807256 106.117954,12.5014419 105.874388,12.389444 C105.111526,12.0407082 104.24715,11.8411911 103.263168,11.8411911 C100.190947,11.8411911 98.3335436,14.4832003 98.3335436,17.8481658 C98.3630262,19.8513849 99.0883651,21.1859701 101.350149,21.2148079 C102.351553,21.2392864 103.396845,21.0367514 104.341628,20.7111528 C104.572463,20.632352 104.82541,20.7943129 104.797603,21.0367514 L104.59826,22.7271142 C104.561072,23.0543894 104.339953,23.3327074 104.030385,23.4403461 C102.979733,23.8065187 101.833932,24 100.538038,24 C96.7682858,24 95,21.8532627 95,18.3115821 C95,13.2934746 97.8417203,9 103.29064,9 C104.612667,9 105.72798,9.24679767 106.635575,9.63711354 C106.918005,9.75883576 107.060057,10.0747099 106.975965,10.3704648 L106.477776,12.1238683" id="Fill-7" fill="#00ACC3"></path>
                <path d="M114.529912,16.7459594 C111.559823,16.7459594 109.382053,17.7033063 109.382053,19.8212058 C109.382053,20.7510563 109.942216,21.3311649 111.207002,21.3311649 C112.411965,21.3311649 113.67743,20.7212125 114.470428,19.9087251 L115.116247,16.7459594 L114.529912,16.7459594 Z M108.899048,10.5066059 C108.906526,10.191067 109.110809,9.90973107 109.414004,9.8077929 C110.82223,9.34437663 112.601292,9 114.147519,9 C117.088715,9 119,9.86949232 119,12.3938032 C119,12.915901 118.911965,13.5546912 118.765806,14.2504862 L117.619646,20.1987794 C117.441876,21.091409 117.530252,21.5907048 117.920802,21.7858628 C118.160775,21.9049024 118.361319,22.132922 118.307614,22.3927973 L118.134602,23.2280866 C118.067641,23.5506673 117.82053,23.816243 117.494222,23.8853196 C117.161455,23.9540608 116.790619,24 116.441196,24 C115.116247,24 114.470428,23.3903829 114.383073,22.316679 L114.294358,22.316679 C113.324269,23.3615452 111.853501,24 110.116587,24 C107.617607,24 106,22.7529341 106,20.2574609 C106,16.8911542 108.706322,14.4832003 114.765466,14.4832003 L115.560503,14.4832003 C115.647179,14.0469452 115.705303,13.6120314 115.705303,13.2934746 C115.705303,12.1325867 115.116247,11.6101536 113.264446,11.6101536 C112.086336,11.6101536 110.674031,11.8871303 109.339905,12.3347864 C109.102991,12.4166052 108.8586,12.2358661 108.864378,11.9890685 L108.899048,10.5066059 Z" id="Fill-8" fill="#00ACC3"></path>
                <path d="M124.906995,9.47680561 C125.187699,9.47680561 125.406957,9.7255888 125.37976,10.0145095 L125.284737,11.0345551 L125.312942,11.0345551 C126.736273,9.8069018 128.568238,9 130.339764,9 C132.548463,9 134,10.3162326 134,12.4130701 C134,13.4303476 133.855954,14.2683906 133.682361,15.2265 L132.153261,23.4712925 C132.094502,23.7761297 131.834279,24 131.532757,24 L129.408672,24 C129.138712,24 128.933221,23.7453346 128.987951,23.4712925 L130.397517,15.9448225 C130.544248,15.1970889 130.660425,14.3573159 130.660425,13.8493691 C130.660425,12.7417822 130.078535,12.1732832 128.857672,12.1732832 C127.522313,12.1732832 126.010337,12.8898757 124.935871,13.9382944 L123.174083,23.4712925 C123.118009,23.7761297 122.856443,24 122.555257,24 L120.432515,24 C120.159198,24 119.955385,23.7453346 120.008437,23.4712925 L122.51295,10.0068972 C122.570367,9.69894581 122.830589,9.47680561 123.132111,9.47680561 L124.906995,9.47680561" id="Fill-9" fill="#00ACC3"></path>
                <path d="M138.908797,9.47680561 C139.189782,9.47680561 139.405975,9.7255888 139.381469,10.0145095 L139.285122,11.0345551 L139.313992,11.0345551 C140.737713,9.8069018 142.567301,9 144.338475,9 C146.547408,9 148,10.3162326 148,12.4130701 C148,13.4303476 147.853297,14.2683906 147.681081,15.2265 L146.152285,23.4712925 C146.094879,23.7761297 145.833701,24 145.531903,24 L143.408239,24 C143.136655,24 142.935232,23.7453346 142.984581,23.4712925 L144.398231,15.9448225 C144.543591,15.1970889 144.659744,14.3573159 144.659744,13.8493691 C144.659744,12.7417822 144.077969,12.1732832 142.857349,12.1732832 C141.522254,12.1732832 140.012257,12.8898757 138.936325,13.9382944 L137.176564,23.4712925 C137.120166,23.7761297 136.85731,24 136.555512,24 L134.432183,24 C134.160934,24 133.956826,23.7453346 134.007853,23.4712925 L136.513884,10.0068972 C136.569947,9.69894581 136.83146,9.47680561 137.134601,9.47680561 L138.908797,9.47680561" id="Fill-10" fill="#00ACC3"></path>
                <g id="Group-14" transform="translate(148.000000, 9.000000)" fill="#00ACC3">
                    <path d="M9.66068571,6.533 C9.7824,6.09933333 9.89828571,5.466 9.89828571,4.85966667 C9.89828571,3.56166667 9.30548571,2.63866667 7.7928,2.63866667 C5.59782857,2.63866667 4.26137143,4.19633333 3.78754286,6.533 L9.66068571,6.533 Z M3.43234286,8.811 C3.372,9.24466667 3.40148571,9.734 3.46148571,10.0806667 C3.72891429,11.4943333 4.85554286,12.186 6.75394286,12.186 C8.07908571,12.186 9.47005714,11.9876667 10.6923429,11.61 C10.9275429,11.537 11.1706286,11.7123333 11.1397714,11.9506667 L10.9416,13.547 C10.9035429,13.8593333 10.6995429,14.136 10.3930286,14.2403333 C9.04868571,14.6966667 7.5288,14.9263333 6.10114286,14.9263333 C2.00742857,14.9263333 0.0195428571,13.2246667 0.0195428571,9.36033333 C0.0195428571,6.01366667 1.14617143,2.92833333 3.58045714,1.28333333 C4.79691429,0.446 6.3096,0.0153333333 8.20834286,0.0153333333 C11.6502857,0.0153333333 13.1629714,1.917 13.1629714,4.74566667 C13.1629714,5.71966667 13.044,7.01666667 12.7669714,8.329 C12.7059429,8.61866667 12.4292571,8.811 12.1254857,8.811 L3.43234286,8.811 Z" id="Fill-11"></path>
                    <path d="M18.4758857,0.474666667 C18.7628571,0.474666667 18.9908571,0.712666667 18.9702857,0.992666667 L18.8883429,2.11933333 L18.9469714,2.11933333 C20.0458286,0.821333333 21.6490286,0.158 23.1606857,0.158 C23.328,0.158 23.4706286,0.162333333 23.5923429,0.170666667 C23.8755429,0.188 24.0353143,0.477333333 23.9502857,0.74 L23.3502857,2.606 C23.2549714,2.904 22.9570286,3.09366667 22.6371429,3.10633333 C21.1374857,3.16933333 19.6892571,3.58566667 18.7107429,4.255 L16.7945143,13.9563333 C16.7352,14.25 16.4694857,14.4656667 16.1605714,14.4656667 L13.992,14.4656667 C13.7163429,14.4656667 13.5065143,14.2203333 13.56,13.9563333 L16.1180571,0.985333333 C16.1784,0.688666667 16.4424,0.474666667 16.7502857,0.474666667 L18.4758857,0.474666667" id="Fill-13"></path>
                </g>
                <path d="M9.15821657,14.3615865 C9.16024459,14.3820988 9.16362463,14.409228 9.16565265,14.426101 C9.16261062,14.3959942 9.16024459,14.3751511 9.15821657,14.3615865 Z M14.180617,25.9417715 C14.180617,13.9109776 23.6061947,4.03695268 35.6235865,3.00372835 C33.7544248,1.15067378 31.1602446,0 28.2892392,0 C23.0045477,0 18.650719,3.89105068 18.048734,8.90399175 C17.1520096,8.35346813 16.0910152,8.0332116 14.95397,8.0332116 C11.7338065,8.0332116 8.80060841,11.1878046 9.16801868,14.4403273 C8.29934857,13.9940194 7.31068707,13.7405932 6.26186087,13.7405932 C2.80306662,13.7405932 0,16.4849403 0,19.870462 C0,22.9549162 2.32681908,25.5067123 5.35634833,25.9358164 C5.5943031,25.9771718 5.83766593,26 6.08711283,26 L14.181293,26 C14.181293,25.9804802 14.179603,25.961953 14.180617,25.9417715 Z M42.4759403,21.3222034 C41.2091015,20.0822019 39.5640364,19.4499599 37.9064651,19.4152213 L37.9064651,19.4162139 C37.8473144,19.4142288 37.7888397,19.4152213 37.7310411,19.4152213 C37.6729044,19.4152213 37.6137537,19.4142288 37.555279,19.4162139 L37.555279,19.4152213 C35.8987217,19.4499599 34.2529806,20.0822019 32.9864798,21.3222034 C31.6686025,22.6131548 31.023691,24.3077354 31.0405912,26 L34.3868301,26 C34.6055187,24.9062313 34.807983,24.3530609 35.4457965,23.7284284 C36.0761738,23.111736 36.9049594,22.8225788 37.7310411,22.8291957 C38.5567847,22.8225788 39.3875983,23.111736 40.0166236,23.7284284 C40.2346362,23.9421533 40.4087082,24.1806915 40.5486418,24.4327942 C41.5176991,23.7357069 42.3214725,22.8341583 42.9099373,21.7916704 C42.7743977,21.6305496 42.6300701,21.4733989 42.4759403,21.3222034 Z M9.16801868,14.4403273 C9.16700467,14.4337104 9.16700467,14.4317253 9.16565265,14.426101 C9.16700467,14.4343721 9.16801868,14.4403273 9.16801868,14.4403273 Z M43.9621436,18.4259992 C43.9868178,18.1590085 44,17.8890402 44,17.6160943 C44,16.3158792 43.6947824,15.0871264 43.1529621,13.9907109 C41.4315081,13.2479672 39.5816126,12.8754374 37.7310411,12.8790767 C34.3043572,12.8727907 30.8786873,14.142899 28.2659169,16.7013119 C25.6446964,19.2663418 24.3447333,22.6359831 24.3614708,26 L27.846454,26 C27.8322579,23.5044473 28.7847529,21.0052553 30.7245575,19.1068752 C32.6116335,17.2601066 35.0787242,16.3274587 37.555279,16.2913968 L37.555279,16.2894117 C37.6137537,16.2884192 37.6729044,16.2907351 37.7310411,16.2907351 C37.7888397,16.2907351 37.8473144,16.2884192 37.9064651,16.2894117 L37.9064651,16.2913968 C40.0571841,16.3224961 42.198777,17.0308321 43.9621436,18.4259992 Z M23.3902102,11.924924 C27.3482362,8.05008462 32.5403147,6.12292109 37.7310411,6.12788375 C37.7438852,6.12788375 37.7580814,6.12920712 37.7719395,6.12920712 C38.2336529,7.18691387 38.5158862,8.3372568 38.582135,9.54450482 C38.3066618,9.53127108 38.0308505,9.5246542 37.7533493,9.5246542 C37.7459132,9.5246542 37.7388151,9.52564674 37.7310411,9.52564674 C37.722929,9.52564674 37.7158309,9.5246542 37.7090708,9.5246542 C33.2284907,9.5246542 29.0166236,11.2337918 25.8495268,14.3328031 C22.6817539,17.4341303 20.9359636,21.5564406 20.9359636,25.9417715 C20.9359636,25.9609605 20.9373156,25.9804802 20.9376536,26 L17.4642561,26 C17.4508051,20.9079873 19.419678,15.8100195 23.3902102,11.924924 Z" id="Fill-15" fill="#00ACC3"></path>
            </g>
        </g>
    </g>
</svg>