<svg xmlns="http://www.w3.org/2000/svg" xmlns:xlink="http://www.w3.org/1999/xlink" viewBox="0 0 55 56.36"><defs><style>.cls-1,.cls-2{fill-rule:evenodd;}.cls-1{fill:url(#linear-gradient);}.cls-2{fill:url(#linear-gradient-2);}</style><linearGradient id="linear-gradient" x1="1.38" y1="34.88" x2="58.77" y2="21.4" gradientTransform="matrix(1, 0, 0, -1, 0, 57.89)" gradientUnits="userSpaceOnUse"><stop offset="0" stop-color="#9043c6"/><stop offset="1" stop-color="#145deb"/></linearGradient><linearGradient id="linear-gradient-2" x1="22.02" y1="25.13" x2="63.37" y2="15.02" gradientTransform="matrix(1, 0, 0, -1, 0, 57.89)" gradientUnits="userSpaceOnUse"><stop offset="0" stop-color="#f99048"/><stop offset="1" stop-color="#e555ac"/></linearGradient></defs><path class="cls-1" d="M23.11,56.35a1.15,1.15,0,0,0,.37,0,1.21,1.21,0,0,0,.38,0c1.38-.47,2.7-1,3.95-1.52l-8-4.63A3.7,3.7,0,0,1,18,47V29.83A3.65,3.65,0,0,1,19.37,27,3.71,3.71,0,0,1,21.17,23h0l14.5-8.41.46-.26a3.73,3.73,0,0,1,3.74,0l.45.26L47,18.47V8.26a1.17,1.17,0,0,0-.21-.72,1.24,1.24,0,0,0-.61-.45L23.84.05a1.23,1.23,0,0,0-.71,0L.82,7.09a1.24,1.24,0,0,0-.61.45A1.17,1.17,0,0,0,0,8.26V22.34C0,40.25,7.34,51,23.11,56.35Z" transform="translate(0 0)"/><path class="cls-2" d="M53.32,25.62a.74.74,0,0,1,0,1.28l-14.49,8-.47.26a.73.73,0,0,1-.7,0l-.47-.26-14.49-8a.73.73,0,0,1,0-1.28l14.5-8.41.45-.26a.7.7,0,0,1,.74,0l.45.26Zm-14,12.13V55.29a.7.7,0,0,0,1.05.61l14.3-8.29A.73.73,0,0,0,55,47V29.83a.7.7,0,0,0-1-.62l-14.3,7.92A.72.72,0,0,0,39.3,37.75ZM21,47V29.83a.7.7,0,0,1,1-.62l14.29,7.92a.7.7,0,0,1,.36.62V55.29a.69.69,0,0,1-1,.61l-14.3-8.29A.73.73,0,0,1,21,47Z" transform="translate(0 0)"/></svg>
